<svg width="23" height="27" viewBox="0 0 23 27" fill="none" xmlns="http://www.w3.org/2000/svg">
<path d="M22.75 6.46875C22.75 9.83424 17.7132 12.5625 11.5 12.5625C5.2868 12.5625 0.25 9.83424 0.25 6.46875C0.25 3.10327 5.2868 0.375 11.5 0.375C17.7132 0.375 22.75 3.10327 22.75 6.46875Z" fill="#0A66C2"/>
<path d="M11.5 14.4375C14.8565 14.4375 17.9881 13.7046 20.348 12.4264C21.2105 11.9592 22.031 11.3804 22.7184 10.6959C22.7393 10.8479 22.75 11.0014 22.75 11.1563C22.75 14.5217 17.7132 17.25 11.5 17.25C5.2868 17.25 0.25 14.5217 0.25 11.1563C0.25 11.0014 0.260664 10.8479 0.281617 10.6959C0.969033 11.3804 1.78953 11.9592 2.65202 12.4264C5.01186 13.7046 8.14351 14.4375 11.5 14.4375Z" fill="#0A66C2"/>
<path d="M11.5 19.125C14.8565 19.125 17.9881 18.3921 20.348 17.1138C21.2105 16.6467 22.031 16.0679 22.7184 15.3834C22.7393 15.5354 22.75 15.6889 22.75 15.8437C22.75 19.2092 17.7132 21.9375 11.5 21.9375C5.2868 21.9375 0.25 19.2092 0.25 15.8437C0.25 15.6889 0.260664 15.5354 0.281617 15.3834C0.969033 16.0679 1.78953 16.6467 2.65202 17.1138C5.01186 18.3921 8.14351 19.125 11.5 19.125Z" fill="#0A66C2"/>
<path d="M11.5 23.8125C14.8565 23.8125 17.9881 23.0796 20.348 21.8013C21.2105 21.3342 22.031 20.7554 22.7184 20.0709C22.7393 20.2229 22.75 20.3764 22.75 20.5312C22.75 23.8967 17.7132 26.625 11.5 26.625C5.2868 26.625 0.25 23.8967 0.25 20.5312C0.25 20.3764 0.260664 20.2229 0.281617 20.0709C0.969033 20.7554 1.78953 21.3342 2.65202 21.8013C5.01186 23.0796 8.14351 23.8125 11.5 23.8125Z" fill="#0A66C2"/>
</svg>
