<svg width="25" height="25" viewBox="0 0 25 25" fill="none" xmlns="http://www.w3.org/2000/svg">
<path fill-rule="evenodd" clip-rule="evenodd" d="M6.875 4.0625C6.875 1.99143 8.55393 0.3125 10.625 0.3125H14.375C16.4461 0.3125 18.125 1.99143 18.125 4.0625V4.31872C19.2906 4.42542 20.4467 4.56495 21.5926 4.7364C23.4101 5.00835 24.6875 6.58954 24.6875 8.38211V12.1736C24.6875 13.6875 23.7704 15.1141 22.2672 15.6139C19.1957 16.635 15.9115 17.1875 12.5 17.1875C9.08858 17.1875 5.80428 16.635 2.73283 15.6138C1.22955 15.114 0.3125 13.6875 0.3125 12.1736V8.38211C0.3125 6.58954 1.58988 5.00835 3.40745 4.7364C4.55325 4.56496 5.70942 4.42542 6.875 4.31872V4.0625ZM16.25 4.0625V4.17603C15.0096 4.10071 13.7592 4.0625 12.5 4.0625C11.2408 4.0625 9.99044 4.10071 8.75 4.17603V4.0625C8.75 3.02697 9.58947 2.1875 10.625 2.1875H14.375C15.4105 2.1875 16.25 3.02697 16.25 4.0625ZM12.5 14.375C13.0178 14.375 13.4375 13.9553 13.4375 13.4375C13.4375 12.9197 13.0178 12.5 12.5 12.5C11.9822 12.5 11.5625 12.9197 11.5625 13.4375C11.5625 13.9553 11.9822 14.375 12.5 14.375Z" fill="#0A66C2"/>
<path d="M1.25 20.4999V17.0049C1.5288 17.1578 1.82621 17.2883 2.14129 17.3931C5.40109 18.4768 8.88501 19.0625 12.5 19.0625C16.115 19.0625 19.5989 18.4769 22.8587 17.3931C23.1738 17.2883 23.4712 17.1578 23.75 17.0049V20.4999C23.75 22.3148 22.441 23.9094 20.5961 24.1543C17.9469 24.506 15.2444 24.6875 12.5 24.6875C9.75559 24.6875 7.05308 24.506 4.40392 24.1543C2.55905 23.9094 1.25 22.3148 1.25 20.4999Z" fill="#0A66C2"/>
</svg>
