<svg width="27" height="23" viewBox="0 0 27 23" fill="none" xmlns="http://www.w3.org/2000/svg">
<path fill-rule="evenodd" clip-rule="evenodd" d="M0.375 8.79041V11.0312C0.375 12.3257 1.42433 13.375 2.71875 13.375H24.2812C25.5757 13.375 26.625 12.3257 26.625 11.0312V8.79041C26.625 7.89524 26.3048 7.0296 25.7222 6.34994L21.6161 1.55953C20.9037 0.72836 19.8637 0.25 18.7689 0.25H8.23107C7.13635 0.25 6.09629 0.72836 5.38385 1.55953L1.27779 6.34994C0.695221 7.0296 0.375 7.89524 0.375 8.79041ZM8.23107 2.125C7.68371 2.125 7.16368 2.36418 6.80746 2.77977L3.35083 6.8125H7.3073C8.56112 6.8125 9.73199 7.43913 10.4275 8.48237L10.6326 8.79006C10.9804 9.31169 11.5658 9.625 12.1927 9.625H14.8073C15.4342 9.625 16.0196 9.31169 16.3674 8.79007L16.5725 8.48237C17.268 7.43913 18.4389 6.8125 19.6927 6.8125H23.6492L20.1925 2.77977C19.8363 2.36418 19.3163 2.125 18.7689 2.125H8.23107Z" fill="#0A66C2"/>
<path d="M2.01562 15.25C1.10953 15.25 0.375 15.9845 0.375 16.8906V19C0.375 21.0711 2.05393 22.75 4.125 22.75H22.875C24.9461 22.75 26.625 21.0711 26.625 19V16.8906C26.625 15.9845 25.8905 15.25 24.9844 15.25H19.6927C18.4389 15.25 17.268 15.8766 16.5725 16.9199L16.3674 17.2276C16.0196 17.7492 15.4342 18.0625 14.8073 18.0625H12.1927C11.5658 18.0625 10.9804 17.7492 10.6326 17.2276L10.4275 16.9199C9.73199 15.8766 8.56112 15.25 7.3073 15.25H2.01562Z" fill="#0A66C2"/>
</svg>
