<svg width="22" height="29" viewBox="0 0 22 29" fill="none" xmlns="http://www.w3.org/2000/svg">
<path d="M4.2636 28.8595H18.2884C20.3726 28.8595 21.7664 27.5286 21.7664 25.5448V3.89858C21.7664 1.91476 20.3726 0.571289 18.2884 0.571289H4.2636C2.17934 0.571289 0.785645 1.91476 0.785645 3.89858V25.5448C0.785645 27.5286 2.17934 28.8595 4.2636 28.8595ZM4.51472 26.838C3.43492 26.838 2.80713 26.2353 2.80713 25.2058V4.23759C2.80713 3.20801 3.43492 2.59277 4.51472 2.59277H18.0374C19.1046 2.59277 19.7449 3.20801 19.7449 4.23759V25.2058C19.7449 26.2353 19.1046 26.838 18.0374 26.838H4.51472ZM6.46087 12.1352H16.1038C16.7692 12.1352 17.2211 11.6957 17.2211 10.9926V8.28055C17.2211 7.57742 16.7692 7.13798 16.1038 7.13798H6.46087C5.79541 7.13798 5.34341 7.57742 5.34341 8.28055V10.9926C5.34341 11.6957 5.79541 12.1352 6.46087 12.1352ZM6.46087 22.2677H16.1038C16.7692 22.2677 17.2211 21.8157 17.2211 21.1251V18.4005C17.2211 17.71 16.7692 17.2579 16.1038 17.2579H6.46087C5.79541 17.2579 5.34341 17.71 5.34341 18.4005V21.1251C5.34341 21.8157 5.79541 22.2677 6.46087 22.2677Z" fill="#0A66C2"/>
</svg>
