<svg width="28" height="27" viewBox="0 0 28 27" fill="none" xmlns="http://www.w3.org/2000/svg">
<path d="M8.7205 19.6686C8.31871 19.2543 7.60303 19.2543 7.17613 19.6686L4.58963 22.2426C4.17529 22.657 4.17529 23.3726 4.57708 23.787C4.99142 24.2013 5.7071 24.2139 6.134 23.7995L8.7205 21.213C9.1474 20.7987 9.1474 20.0956 8.7205 19.6686ZM6.4479 14.1943C6.4479 13.6043 5.94566 13.102 5.34298 13.102H1.66413C1.07401 13.102 0.571777 13.6043 0.571777 14.1943C0.571777 14.7844 1.07401 15.2867 1.66413 15.2867H5.34298C5.94566 15.2867 6.4479 14.7844 6.4479 14.1943ZM8.59493 8.607C9.02183 8.19266 9.02183 7.48954 8.59493 7.06264L6.021 4.47614C5.60666 4.0618 4.90353 4.04924 4.47663 4.46359C4.06229 4.87793 4.06229 5.58105 4.47663 6.00795L7.05058 8.607C7.47747 9.0339 8.18059 9.0339 8.59493 8.607ZM14.1948 6.4223C14.7975 6.4223 15.2997 5.92006 15.2997 5.32994V1.66364C15.2997 1.07352 14.7975 0.571289 14.1948 0.571289C13.6047 0.571289 13.1025 1.07352 13.1025 1.66364V5.32994C13.1025 5.92006 13.6047 6.4223 14.1948 6.4223ZM19.6566 8.73256C20.0835 9.15945 20.7992 9.15945 21.2135 8.73256L23.8 6.14606C24.2269 5.71917 24.2269 5.01605 23.8 4.58915C23.3857 4.1748 22.6825 4.1748 22.2682 4.58915L19.6566 7.1882C19.2423 7.6151 19.2423 8.31822 19.6566 8.73256ZM21.9669 14.1943C21.9669 14.7844 22.4691 15.2867 23.0592 15.2867H26.7256C27.3282 15.2867 27.8304 14.7844 27.8304 14.1943C27.8304 13.6043 27.3282 13.102 26.7256 13.102H23.0592C22.4691 13.102 21.9669 13.6043 21.9669 14.1943ZM13.203 22.9206C13.1903 23.4103 13.7554 23.5609 14.0818 23.2471L15.9903 21.326L18.1373 26.6371C18.2378 26.8632 18.489 26.9886 18.7149 26.8883L19.9705 26.3986C20.1965 26.2856 20.2843 26.0219 20.1714 25.7959L17.9113 20.5727L20.6233 20.4597C21.0879 20.4346 21.3265 19.9826 20.9875 19.6184L14.1195 12.5746C13.8056 12.2481 13.3284 12.424 13.3159 12.8885L13.203 22.9206Z" fill="#0A66C2"/>
</svg>
