<svg width="28" height="22" viewBox="0 0 28 22" fill="none" xmlns="http://www.w3.org/2000/svg">
<path d="M17.3179 21.3324H24.7847C26.4272 21.3324 27.5256 20.2844 27.5256 18.7124V2.61995C27.5256 1.04798 26.4272 0 24.7847 0H17.3179C15.6754 0 14.567 1.04798 14.567 2.61995V18.7124C14.567 20.2844 15.6754 21.3324 17.3179 21.3324ZM17.5194 19.71C16.673 19.71 16.1893 19.2565 16.1893 18.4504V2.88193C16.1893 2.0758 16.673 1.62235 17.5194 1.62235H24.5731C25.4196 1.62235 25.9032 2.0758 25.9032 2.88193V18.4504C25.9032 19.2565 25.4196 19.71 24.5731 19.71H17.5194ZM1.08433 18.9341C1.60831 18.9341 1.98115 18.5714 1.98115 18.0474V16.5157C1.98115 12.7672 4.26856 11.558 7.20088 11.558H7.86595L10.6572 11.4673V10.903L7.91633 13.402L6.80789 14.3492C6.57613 14.5407 6.51567 14.7926 6.51567 15.0345C6.51567 15.5282 6.89858 15.901 7.39234 15.901C7.63418 15.901 7.84579 15.8103 8.06748 15.5987L12.3299 11.3464C12.5315 11.1549 12.6423 10.9231 12.6423 10.6713C12.6423 10.4193 12.5315 10.1876 12.3299 9.99608L8.04732 5.72356C7.84579 5.52204 7.63418 5.44141 7.39234 5.44141C6.89858 5.44141 6.51567 5.80418 6.51567 6.30801C6.51567 6.54986 6.57613 6.80177 6.80789 6.99323L7.91633 7.94044L10.6572 10.4394V9.87519L7.86595 9.78447H7.20088C3.62365 9.78447 0.1875 11.427 0.1875 16.5157V18.0474C0.1875 18.5714 0.560338 18.9341 1.08433 18.9341Z" fill="#0A66C2"/>
</svg>
