<svg width="22" height="30" viewBox="0 0 22 30" fill="none" xmlns="http://www.w3.org/2000/svg">
<path d="M12.1098 29.6024C17.0668 29.6024 19.8537 26.4957 19.8537 21.1847V18.9917C19.8537 16.9815 18.8943 15.7593 17.7978 15.7593C17.5465 15.7593 17.4209 15.8964 17.4209 16.1248V17.0956C17.4209 17.564 17.181 17.781 16.9069 17.781C16.6099 17.781 16.3815 17.564 16.3815 17.0956V16.4561C16.3815 15.2797 15.6162 14.503 14.5997 14.503C14.1315 14.503 13.9258 14.6971 13.9258 15.0854V16.4104C13.9258 16.8787 13.6974 17.0956 13.4233 17.0956C13.1263 17.0956 12.8864 16.8787 12.8864 16.4104V15.1883C12.8864 13.8633 12.1212 13.2352 11.1275 13.2352C10.6935 13.2352 10.4536 13.4407 10.4536 13.8177V16.4104C10.4536 16.8787 10.2252 17.0956 9.9511 17.0956C9.65414 17.0956 9.41429 16.8787 9.41429 16.4104V7.74134C9.41429 6.89613 8.86605 6.34789 8.14648 6.34789C7.38123 6.34789 6.85583 6.89613 6.85583 7.74134V20.4308C6.85583 20.7506 6.65024 20.9105 6.45608 20.9105C6.26191 20.9105 6.102 20.7963 5.96495 20.4879L4.28596 16.5132C4.03469 15.9306 3.65777 15.6794 3.1438 15.6794C2.3557 15.6794 1.85315 16.2162 1.85315 16.8673C1.85315 17.1185 1.91025 17.3355 1.96737 17.5182L3.81767 23.035C5.39386 27.6949 8.4663 29.6024 12.1098 29.6024ZM2.32144 9.27184C3.33797 9.27184 4.11464 8.47233 4.11464 7.47864C4.11464 6.49637 3.33797 5.69686 2.32144 5.69686C1.35059 5.69686 0.5625 6.49637 0.5625 7.47864C0.5625 8.47233 1.35059 9.27184 2.32144 9.27184ZM8.14648 4.07498C9.14017 4.07498 9.93968 3.27547 9.93968 2.28177C9.93968 1.31094 9.14017 0.5 8.14648 0.5C7.17565 0.5 6.3647 1.31094 6.3647 2.28177C6.3647 3.27547 7.17565 4.07498 8.14648 4.07498ZM14.0286 9.27184C15.0223 9.27184 15.8218 8.47233 15.8218 7.47864C15.8218 6.49637 15.0223 5.69686 14.0286 5.69686C13.0464 5.69686 12.2469 6.49637 12.2469 7.47864C12.2469 8.47233 13.0464 9.27184 14.0286 9.27184ZM19.2826 9.27184C20.2763 9.27184 21.0758 8.47233 21.0758 7.47864C21.0758 6.49637 20.2763 5.69686 19.2826 5.69686C18.3117 5.69686 17.5122 6.49637 17.5122 7.47864C17.5122 8.47233 18.3117 9.27184 19.2826 9.27184ZM19.2826 4.07498C20.2763 4.07498 21.0758 3.27547 21.0758 2.28177C21.0758 1.31094 20.2763 0.5 19.2826 0.5C18.3117 0.5 17.5122 1.31094 17.5122 2.28177C17.5122 3.27547 18.3117 4.07498 19.2826 4.07498Z" fill="#0A66C2"/>
</svg>
