<svg width="31" height="24" viewBox="0 0 31 24" fill="none" xmlns="http://www.w3.org/2000/svg">
<path d="M3.72748 19.94H27.2194C29.2421 19.94 30.2593 18.9819 30.2593 16.9V3.34431C30.2593 1.27429 29.2421 0.316162 27.2194 0.316162H3.72748C1.70477 0.316162 0.6875 1.27429 0.6875 3.34431V16.9C0.6875 18.9819 1.70477 19.94 3.72748 19.94ZM9.52355 23.95H21.4233C21.9437 23.95 22.3814 23.5241 22.3814 22.9918C22.3814 22.4595 21.9437 22.0337 21.4233 22.0337H9.52355C9.00309 22.0337 8.56543 22.4595 8.56543 22.9918C8.56543 23.5241 9.00309 23.95 9.52355 23.95ZM16.0885 15.0311C15.8283 15.0311 15.6626 14.8773 15.6272 14.6289C15.1067 11.0684 14.6454 10.276 10.9075 9.89744C10.6591 9.86191 10.5053 9.68446 10.5053 9.44793C10.5053 9.22318 10.6591 9.03392 10.9075 8.99844C14.6335 8.50164 14.9529 7.85106 15.6272 4.25513C15.6863 4.01855 15.8519 3.86478 16.0885 3.86478C16.3133 3.86478 16.4906 4.03038 16.5261 4.26696C17.0585 7.79191 17.5434 8.50164 21.2576 8.99844C21.4942 9.03392 21.6598 9.22318 21.6598 9.44793C21.6598 9.68446 21.4942 9.86191 21.2576 9.89744C17.5316 10.3943 17.2004 11.0684 16.5261 14.6407C16.4788 14.8773 16.3133 15.0311 16.0885 15.0311ZM11.286 17.0302C11.0968 17.0302 11.0022 16.9 10.943 16.7108C10.5881 14.9719 10.7419 14.8891 8.82566 14.6052C8.62457 14.5698 8.51811 14.4515 8.51811 14.2622C8.51811 14.0966 8.62457 13.9547 8.802 13.931C10.7419 13.6117 10.5881 13.5288 10.943 11.8018C11.0022 11.6126 11.1086 11.4825 11.286 11.4825C11.4635 11.4825 11.5818 11.6244 11.629 11.8018C11.9603 13.5288 11.842 13.6117 13.7819 13.931C13.9475 13.9547 14.0658 14.0966 14.0658 14.2622C14.0658 14.4279 13.9475 14.5698 13.7819 14.6052C11.842 14.8891 11.9603 14.9719 11.629 16.7462C11.5818 16.9118 11.4517 17.0302 11.286 17.0302Z" fill="#0A66C2"/>
</svg>
