<svg width="31" height="23" viewBox="0 0 31 23" fill="none" xmlns="http://www.w3.org/2000/svg">
<path d="M27.2188 0.437425C26.8964 0.228891 26.5278 0.102732 26.1453 0.0700381C25.7627 0.0373442 25.3781 0.0991164 25.025 0.249925L13.4562 4.80617C13.1826 4.91857 12.8895 4.97592 12.5938 4.97492H5.1875C4.5659 4.97492 3.96976 5.22185 3.53022 5.66139C3.09068 6.10093 2.84375 6.69707 2.84375 7.31868V7.50617H0.5V13.1312H2.84375V13.3749C2.85844 13.9867 3.11184 14.5685 3.54979 14.996C3.98775 15.4234 4.57552 15.6626 5.1875 15.6624L8 21.6249C8.19044 22.0264 8.49027 22.3661 8.86505 22.6049C9.23983 22.8437 9.67437 22.972 10.1188 22.9749H11.3C11.9183 22.97 12.5097 22.7209 12.9452 22.2819C13.3807 21.8429 13.625 21.2495 13.625 20.6312V15.8874L25.025 20.4437C25.3058 20.554 25.6046 20.6112 25.9062 20.6124C26.3743 20.6038 26.8299 20.4606 27.2188 20.1999C27.5271 19.9917 27.7815 19.713 27.9609 19.387C28.1402 19.0609 28.2393 18.6969 28.25 18.3249V2.36867C28.2483 1.98714 28.1534 1.6118 27.9737 1.27524C27.794 0.938678 27.5349 0.651081 27.2188 0.437425ZM11.2812 7.31868V13.3749H5.1875V7.31868H11.2812ZM11.2812 20.6312H10.1L7.79375 15.6624H11.2812V20.6312ZM14.3187 13.6562C14.0961 13.5425 13.864 13.4484 13.625 13.3749V7.18742C13.8616 7.13824 14.0937 7.06924 14.3187 6.98118L25.9062 2.36867V18.2687L14.3187 13.6562ZM28.3062 7.97492V12.6624C28.9279 12.6624 29.524 12.4155 29.9635 11.976C30.4031 11.5364 30.65 10.9403 30.65 10.3187C30.65 9.69707 30.4031 9.10093 29.9635 8.66139C29.524 8.22186 28.9279 7.97492 28.3062 7.97492Z" fill="#0A66C2"/>
</svg>
