<svg width="21" height="23" viewBox="0 0 21 23" fill="none" xmlns="http://www.w3.org/2000/svg">
<path fill-rule="evenodd" clip-rule="evenodd" d="M10.5 0.375C7.76496 0.375 5.14193 1.46149 3.20796 3.39546C1.27399 5.32943 0.1875 7.95246 0.1875 10.6875V12.5625C0.1875 13.5525 0.590625 14.5031 1.01813 15.2362C1.45125 15.9844 1.9725 16.6106 2.33625 16.9762L4.99313 19.6313L6.075 22.875H14.925L16.0069 19.6313L18.6637 16.9762C19.0275 16.6106 19.5487 15.9825 19.9819 15.2362C20.4094 14.5031 20.8125 13.5525 20.8125 12.5625V10.6875C20.8125 7.95246 19.726 5.32943 17.792 3.39546C15.8581 1.46149 13.235 0.375 10.5 0.375ZM13.0387 8.53875L11.7113 7.21125L8.23688 10.6875L10.1119 12.5625L7.96125 14.7113L9.28875 16.0387L12.7631 12.5625L10.8881 10.6875L13.0387 8.53875Z" fill="#0A66C2"/>
</svg>
