<svg width="29" height="25" viewBox="0 0 29 25" fill="none" xmlns="http://www.w3.org/2000/svg">
<path d="M9.5 0.25C7.17936 0.25 4.95376 1.17187 3.31282 2.81282C1.67187 4.45376 0.75 6.67936 0.75 9C0.75 11.3206 1.67187 13.5462 3.31282 15.1872C4.95376 16.8281 7.17936 17.75 9.5 17.75H10.8375C10.7178 16.921 10.7178 16.079 10.8375 15.25H9.5C7.8424 15.25 6.25269 14.5915 5.08058 13.4194C3.90848 12.2473 3.25 10.6576 3.25 9C3.25 7.3424 3.90848 5.75269 5.08058 4.58058C6.25269 3.40848 7.8424 2.75 9.5 2.75H19.5C20.4269 2.74981 21.3422 2.95579 22.1797 3.35301C23.0172 3.75023 23.7558 4.32875 24.3421 5.04666C24.9284 5.76457 25.3477 6.6039 25.5696 7.50385C25.7914 8.4038 25.8104 9.34183 25.625 10.25C26.3619 10.9718 26.9653 11.8181 27.4075 12.75C28.0402 11.4162 28.3251 9.94394 28.2358 8.47036C28.1464 6.99678 27.6857 5.56977 26.8964 4.32217C26.1072 3.07456 25.0151 2.04692 23.7219 1.33492C22.4286 0.622916 20.9763 0.249695 19.5 0.25H9.5ZM13.25 16.5C13.2502 15.5255 13.4783 14.5646 13.9161 13.694C14.3538 12.8233 14.9891 12.0671 15.7711 11.4857C16.5532 10.9043 17.4604 10.5139 18.4202 10.3455C19.38 10.1771 20.3659 10.2355 21.2992 10.5161C22.2324 10.7966 23.0871 11.2914 23.795 11.9611C24.503 12.6308 25.0445 13.4567 25.3764 14.3729C25.7083 15.2892 25.8213 16.2703 25.7065 17.238C25.5916 18.2057 25.2521 19.1331 24.715 19.9463L27.8838 23.1162L26.1162 24.8838L22.9463 21.715C22.0042 22.3377 20.9111 22.6935 19.783 22.7446C18.6549 22.7957 17.5341 22.5403 16.5395 22.0054C15.545 21.4705 14.714 20.6762 14.1348 19.7068C13.5556 18.7374 13.2498 17.6292 13.25 16.5Z" fill="#0A66C2"/>
</svg>
