<svg width="30" height="22" viewBox="0 0 30 22" fill="none" xmlns="http://www.w3.org/2000/svg">
<path d="M4.99591 9.78709C5.26966 9.75546 5.55395 9.73444 5.82771 9.73444C6.12251 9.73444 6.4068 9.75546 6.69108 9.7976V7.50225H4.99591V9.78709ZM4.99591 6.0598H6.69108V3.85923C6.69108 2.7642 7.27019 2.20617 8.32309 2.20617H10.5026V0.510986H8.30203C6.10146 0.510986 4.99591 1.59548 4.99591 3.77499V6.0598ZM11.9451 2.20617H16.6937V0.510986H11.9451V2.20617ZM18.1257 2.20617H22.8742V0.510986H18.1257V2.20617ZM29.8234 6.0598V3.77499C29.8234 1.59548 28.7178 0.510986 26.5173 0.510986H24.3167V2.20617H26.4963C27.5492 2.20617 28.1282 2.7642 28.1282 3.85923V6.0598H29.8234ZM29.8234 12.9036V7.50225H28.1282V12.9036H29.8234ZM26.5173 19.895C28.7178 19.895 29.8234 18.8105 29.8234 16.631V14.3462H28.1282V16.5467C28.1282 17.6418 27.5492 18.1998 26.4963 18.1998H24.3167V19.895H26.5173ZM18.1257 19.895H22.8742V18.1998H18.1257V19.895ZM11.7345 19.8845L16.6937 19.895V18.1998H12.3978C12.2609 18.8 12.0399 19.358 11.7345 19.8845ZM5.84876 21.8849C8.77584 21.8849 11.1975 19.4633 11.1975 16.5362C11.1975 13.6196 8.76531 11.1875 5.83824 11.1875C2.92168 11.1875 0.5 13.6196 0.5 16.5362C0.5 19.4633 2.93221 21.8849 5.84876 21.8849ZM5.84876 20.6215C3.58501 20.6215 1.77402 18.8 1.77402 16.5362C1.77402 14.283 3.58501 12.4509 5.83824 12.4509C8.10198 12.4509 9.92352 14.283 9.93404 16.5362C9.94455 18.8 8.10198 20.6215 5.84876 20.6215ZM5.83824 19.7055C7.58606 19.7055 9.00748 18.2735 9.00748 16.5467C9.00748 14.8094 7.57553 13.3775 5.83824 13.3775C4.10094 13.3775 2.67951 14.8094 2.67951 16.5467C2.67951 18.2735 4.11147 19.7055 5.83824 19.7055Z" fill="#0A66C2"/>
</svg>
