<svg width="23" height="22" viewBox="0 0 23 22" fill="none" xmlns="http://www.w3.org/2000/svg">
<path d="M3.53125 0.6875C1.71907 0.6875 0.25 2.15657 0.25 3.96875C0.25 5.78093 1.71907 7.25 3.53125 7.25H19.4688C21.2809 7.25 22.75 5.78093 22.75 3.96875C22.75 2.15657 21.2809 0.6875 19.4688 0.6875H3.53125Z" fill="#0A66C2"/>
<path d="M1.1875 10.0625C0.669733 10.0625 0.25 10.4822 0.25 11C0.25 11.5178 0.669733 11.9375 1.1875 11.9375H21.8125C22.3303 11.9375 22.75 11.5178 22.75 11C22.75 10.4822 22.3303 10.0625 21.8125 10.0625H1.1875Z" fill="#0A66C2"/>
<path d="M0.25 15.6875C0.25 15.1697 0.669733 14.75 1.1875 14.75H21.8125C22.3303 14.75 22.75 15.1697 22.75 15.6875C22.75 16.2053 22.3303 16.625 21.8125 16.625H1.1875C0.669733 16.625 0.25 16.2053 0.25 15.6875Z" fill="#0A66C2"/>
<path d="M1.1875 19.4375C0.669733 19.4375 0.25 19.8572 0.25 20.375C0.25 20.8928 0.669733 21.3125 1.1875 21.3125H21.8125C22.3303 21.3125 22.75 20.8928 22.75 20.375C22.75 19.8572 22.3303 19.4375 21.8125 19.4375H1.1875Z" fill="#0A66C2"/>
</svg>
