<svg width="27" height="27" viewBox="0 0 27 27" fill="none" xmlns="http://www.w3.org/2000/svg">
<path d="M15.4375 0.6875H10.925C8.6375 0.6875 6.8125 0.6875 5.3875 0.875C3.925 1.075 2.7375 1.4875 1.8 2.425C0.8625 3.3625 0.45 4.55 0.25 6.0125C0.1375 6.85 0.1 7.8375 0.075 8.9625C0.0625 9.025 0.0625 9.075 0.0625 9.125C0.0625 9.175 0.0625 9.2125 0.075 9.25C0.0625 9.9625 0.0625 10.725 0.0625 11.55V12.95C0.0625 15.2375 0.0625 17.0625 0.25 18.4875C0.45 19.95 0.8625 21.1375 1.8 22.075C2.7375 23.0125 3.925 23.425 5.3875 23.625C6.8125 23.8125 8.6375 23.8125 10.925 23.8125H11C11.5125 23.8125 11.9375 23.3875 11.9375 22.875C11.9375 22.3625 11.5125 21.9375 11 21.9375C8.6125 21.9375 6.925 21.9375 5.6375 21.7625C4.375 21.5875 3.6625 21.275 3.125 20.75C2.6 20.2125 2.2875 19.5 2.1125 18.2375C1.9375 16.95 1.9375 15.2625 1.9375 12.875V10.0625H23.8125V11C23.8125 11.5125 24.2375 11.9375 24.75 11.9375C25.2625 11.9375 25.6875 11.5125 25.6875 11V9.0125C25.675 7.8875 25.6375 6.9125 25.5375 6.1C25.3875 4.8 25.0625 3.75 24.3375 2.8625C24.0875 2.5625 23.8125 2.2875 23.5125 2.0375C22.625 1.3125 21.575 0.9875 20.275 0.8375C19.025 0.6875 17.4375 0.6875 15.4375 0.6875ZM23.7875 8.1875H1.975C2 7.45 2.0375 6.825 2.1125 6.2625C2.2875 5 2.6 4.2875 3.125 3.75C3.6625 3.225 4.375 2.9125 5.6375 2.7375C6.925 2.5625 8.6125 2.5625 11 2.5625H15.375C17.45 2.5625 18.925 2.5625 20.0625 2.7C21.175 2.825 21.825 3.075 22.325 3.4875C22.5375 3.65 22.725 3.8375 22.8875 4.05C23.3 4.55 23.55 5.2 23.675 6.3125C23.7375 6.85 23.775 7.4625 23.7875 8.1875ZM4.125 5.375C4.125 4.6875 4.6875 4.125 5.375 4.125H5.3875C6.075 4.125 6.6375 4.6875 6.6375 5.375C6.6375 6.0625 6.075 6.625 5.3875 6.625H5.375C4.6875 6.625 4.125 6.0625 4.125 5.375ZM9.1125 5.375C9.1125 4.6875 9.675 4.125 10.3625 4.125H10.375C11.0625 4.125 11.625 4.6875 11.625 5.375C11.625 6.0625 11.0625 6.625 10.375 6.625H10.3625C9.675 6.625 9.1125 6.0625 9.1125 5.375ZM25.6375 14.0125C24.5375 12.9125 22.7625 12.9125 21.6625 14.0125L14.825 20.85C14.175 21.5 13.8125 22.375 13.8125 23.2875V25.375C13.8125 25.8875 14.2375 26.3125 14.75 26.3125H16.8375C17.75 26.3125 18.625 25.95 19.275 25.3L26.1125 18.4625C27.2125 17.3625 27.2125 15.5875 26.1125 14.4875L25.6375 14.0125ZM22.9875 15.3375C23.35 14.975 23.95 14.975 24.3125 15.3375L24.7875 15.8125C25.15 16.175 25.15 16.775 24.7875 17.1375L17.95 23.975C17.65 24.275 17.25 24.4375 16.8375 24.4375H15.6875V23.2875C15.6875 22.875 15.85 22.475 16.15 22.175L22.9875 15.3375Z" fill="#0A66C2"/>
</svg>
