<svg width="27" height="25" viewBox="0 0 27 25" fill="none" xmlns="http://www.w3.org/2000/svg">
<path d="M3.84431 19.8996L4.86133 21.6323L13.8136 17.1373L22.7659 21.6323L23.783 19.8996L14.8306 15.4046V4.80754H12.8092V15.4046L3.84431 19.8996ZM0.66769 21.6951C0.66769 22.2099 0.881138 22.5866 1.33315 22.8376L3.84431 24.3067C4.17076 24.5076 4.39677 24.5453 4.83621 24.2941L7.2846 22.8754C7.7366 22.6242 7.82449 22.4108 7.81195 21.9965L7.82449 19.0835C7.82449 18.5813 7.5985 18.2171 7.1716 17.9661L4.64788 16.497C4.32142 16.3212 4.0452 16.2584 3.6183 16.497L1.13225 17.9409C0.705357 18.1795 0.642578 18.4306 0.642578 18.7822L0.66769 21.6951ZM19.7399 22.009C19.7274 22.4233 19.8153 22.6367 20.2673 22.8879L22.7157 24.3067C23.1551 24.5578 23.3812 24.5202 23.7075 24.3192L26.2188 22.8503C26.6708 22.5991 26.8842 22.2224 26.8842 21.7077L26.9093 18.7947C26.9093 18.4432 26.8465 18.192 26.4196 17.9534L23.9336 16.5096C23.5066 16.271 23.2304 16.3337 22.904 16.5096L20.3803 17.9786C19.9534 18.2297 19.7274 18.5938 19.7274 19.096L19.7399 22.009ZM10.6119 6.95459L13.1482 8.41106C13.575 8.64962 13.9894 8.64962 14.4163 8.41106L16.9526 6.95459C17.3041 6.7537 17.4548 6.56536 17.4548 6.05057V3.21296C17.4548 2.71073 17.3041 2.53495 16.9777 2.34661L14.4414 0.902692C13.9894 0.651577 13.5625 0.651577 13.123 0.902692L10.5868 2.34661C10.2729 2.52239 10.0971 2.71073 10.0971 3.21296V6.05057C10.0971 6.56536 10.2854 6.76626 10.6119 6.95459Z" fill="#0A66C2"/>
</svg>
