<svg width="27" height="27" viewBox="0 0 27 27" fill="none" xmlns="http://www.w3.org/2000/svg">
<path d="M2.78962 13.4497C2.78962 12.3071 2.9654 11.2023 3.29186 10.1852L1.32059 9.35655C0.893694 10.6498 0.642578 12.0184 0.642578 13.4497C0.642578 14.8685 0.893694 16.2497 1.33315 17.5429L3.29186 16.7143C2.9654 15.6973 2.78962 14.5923 2.78962 13.4497ZM8.56529 3.93244L7.76172 1.99884C5.27567 3.24187 3.22907 5.28847 1.98605 7.77452L3.94475 8.59065C4.94922 6.59428 6.58147 4.96202 8.56529 3.93244ZM13.4369 2.77731C14.5795 2.77731 15.6845 2.95309 16.7265 3.2921L17.5301 1.33339C16.2369 0.893938 14.8557 0.642822 13.4369 0.642822C12.0181 0.642822 10.6244 0.893938 9.3312 1.33339L10.1599 3.2921C11.1895 2.95309 12.2944 2.77731 13.4369 2.77731ZM22.9542 8.57809L24.9004 7.77452C23.6449 5.28847 21.5982 3.24187 19.1122 1.9863L18.3086 3.93244C20.2924 4.94946 21.9372 6.58172 22.9542 8.57809ZM24.122 13.4497C24.122 14.5923 23.9461 15.6973 23.6197 16.7268L25.5658 17.5555C26.0053 16.2622 26.2564 14.8685 26.2564 13.4497C26.2564 12.0184 26.0053 10.6372 25.5658 9.34399L23.6071 10.1727C23.9461 11.2023 24.122 12.3071 24.122 13.4497ZM18.3086 22.9545L19.1122 24.9131C21.6108 23.6576 23.6574 21.611 24.8878 19.125L22.9668 18.3214C21.9498 20.3178 20.305 21.9375 18.3086 22.9545ZM13.4495 24.1222C12.2944 24.1222 11.1895 23.9464 10.1599 23.6074L9.34375 25.5661C10.637 26.0056 12.0307 26.2566 13.4495 26.2566C14.8683 26.2566 16.2494 26.0056 17.5301 25.5786L16.714 23.6199C15.6845 23.9464 14.592 24.1222 13.4495 24.1222ZM3.94475 18.3214L1.9986 19.125C3.25419 21.611 5.27567 23.6576 7.76172 24.9006L8.56529 22.9419C6.58147 21.9249 4.94922 20.3053 3.94475 18.3214ZM13.4244 22.2137C18.3086 22.2137 22.2009 18.3214 22.1884 13.4497C22.1758 8.57809 18.2834 4.68579 13.4119 4.68579C8.54017 4.68579 4.67299 8.56553 4.67299 13.4497C4.67299 18.3339 8.55273 22.2137 13.4244 22.2137Z" fill="#0A66C2"/>
</svg>
