<svg width="25" height="25" viewBox="0 0 25 25" fill="none" xmlns="http://www.w3.org/2000/svg">
<path d="M0.714355 7.49448C0.714355 8.59941 1.8946 8.87563 2.59772 8.15995L8.15995 2.59772C8.88819 1.88204 8.59941 0.714355 7.49448 0.714355H1.85694C1.15381 0.714355 0.714355 1.19148 0.714355 1.86948V7.49448ZM3.95376 5.53578L19.862 21.4566L21.4566 19.887L5.54834 3.95376L3.95376 5.53578ZM24.7085 17.9284C24.7085 16.8109 23.5283 16.5472 22.8126 17.2504L17.2504 22.8126C16.5346 23.5408 16.8235 24.7085 17.9284 24.7085H23.5659C24.2691 24.7085 24.7085 24.2188 24.7085 23.5534V17.9284ZM24.7085 7.49448V1.86948C24.7085 1.19148 24.2691 0.714355 23.5659 0.714355H17.9284C16.8235 0.714355 16.5346 1.88204 17.2504 2.59772L22.8126 8.15995C23.5283 8.87563 24.7085 8.59941 24.7085 7.49448ZM5.54834 21.4566L21.4691 5.53578L19.8745 3.95376L3.95376 19.8745L5.54834 21.4566ZM0.714355 17.9284V23.5534C0.714355 24.2188 1.15381 24.7085 1.85694 24.7085H7.49448C8.59941 24.7085 8.88819 23.5408 8.15995 22.8126L2.59772 17.2504C1.8946 16.5472 0.714355 16.8109 0.714355 17.9284Z" fill="#0A66C2"/>
</svg>
