<svg width="23" height="30" viewBox="0 0 23 30" fill="none" xmlns="http://www.w3.org/2000/svg">
<path d="M0.785645 26.3649C0.785645 27.3443 0.999093 27.9345 1.92823 28.3864C4.07526 29.3155 7.03844 29.9309 10.5917 29.9309C14.1074 29.9309 18.0624 29.4035 20.9 28.0223C22.4068 27.3066 22.7708 26.6411 22.7708 25.0842V5.8111C22.7708 3.77706 21.8669 2.84794 19.9082 2.84794H18.7279V2.34571C18.7279 1.10268 18.1001 0.5 16.9952 0.5C16.6185 0.5 16.1665 0.587891 15.6266 0.763672C11.8348 2.0067 8.36934 2.79771 3.9246 2.79771H2.92013C1.5641 2.79771 0.785645 3.58872 0.785645 4.8192V26.3649ZM5.24296 12.315V8.07115C5.24296 7.89536 5.36851 7.7447 5.5443 7.73214C8.4698 7.61914 11.0814 7.10435 13.7558 6.125C13.9065 6.06222 14.1701 6.125 14.1701 6.42634V10.8585C14.1701 10.9715 14.1074 11.0845 13.9943 11.1222C11.6589 12.0765 8.5828 12.6164 5.5443 12.6164C5.38107 12.6164 5.24296 12.5159 5.24296 12.315ZM5.8833 27.7837C10.8177 27.6456 15.4006 26.2645 17.8866 24.3685C18.4642 23.9291 18.7279 23.4771 18.7279 22.3722V4.86941H19.9207C20.4731 4.86941 20.7494 5.17076 20.7494 5.8111V24.9461C20.7494 25.6995 20.6363 25.9757 19.9207 26.2896C17.422 27.3819 13.9065 28.0851 10.5917 28.0851C9.0097 28.0851 7.51556 27.9972 5.8833 27.7837Z" fill="#0A66C2"/>
</svg>
