<svg width="28" height="26" viewBox="0 0 28 26" fill="none" xmlns="http://www.w3.org/2000/svg">
<path d="M10.1016 25.6038C10.3276 25.6038 10.4909 25.4405 10.5285 25.202C10.9303 21.8496 11.0935 21.7616 14.5087 21.2092C14.7724 21.159 14.9356 21.0334 14.9356 20.7824C14.9356 20.5438 14.7724 20.3931 14.559 20.3554C11.1187 19.7026 10.9303 19.7151 10.5285 16.3627C10.4909 16.1241 10.3276 15.9609 10.1016 15.9609C9.86308 15.9609 9.69985 16.1241 9.67473 16.3502C9.23528 19.7527 9.12228 19.8657 5.64433 20.3554C5.43088 20.3806 5.26765 20.5438 5.26765 20.7824C5.26765 21.0209 5.43088 21.159 5.64433 21.2092C9.12228 21.8747 9.22273 21.8747 9.67473 25.2271C9.69985 25.4405 9.86308 25.6038 10.1016 25.6038ZM4.13762 14.6676C4.31341 14.6676 4.41386 14.5421 4.45152 14.3789C4.87842 11.9933 4.89097 11.8426 7.41469 11.4157C7.57791 11.378 7.70347 11.2776 7.70347 11.1018C7.70347 10.926 7.57791 10.813 7.41469 10.7879C4.89097 10.3485 4.87842 10.1978 4.45152 7.81219C4.41386 7.64896 4.31341 7.53595 4.13762 7.53595C3.96184 7.53595 3.8614 7.64896 3.82373 7.81219C3.39683 10.1978 3.38428 10.3485 0.860561 10.7879C0.697336 10.813 0.571777 10.926 0.571777 11.1018C0.571777 11.2776 0.697336 11.378 0.860561 11.4157C3.38428 11.8426 3.39683 11.9933 3.82373 14.3789C3.8614 14.5421 3.96184 14.6676 4.13762 14.6676ZM11.0182 6.63194C11.1689 6.63194 11.2442 6.54405 11.2693 6.40594C11.6962 4.39701 11.6711 4.32167 13.7805 3.89478C13.9186 3.86967 14.0191 3.78178 14.0191 3.64366C14.0191 3.49299 13.9186 3.40509 13.7805 3.37999C11.6711 2.95309 11.6962 2.87776 11.2693 0.881382C11.2442 0.743269 11.1689 0.642822 11.0182 0.642822C10.8675 0.642822 10.7922 0.743269 10.7671 0.881382C10.3402 2.87776 10.3653 2.95309 8.25593 3.37999C8.11782 3.40509 8.01737 3.49299 8.01737 3.64366C8.01737 3.78178 8.11782 3.86967 8.25593 3.89478C10.3653 4.32167 10.3402 4.39701 10.7671 6.40594C10.7922 6.54405 10.8675 6.63194 11.0182 6.63194ZM21.3893 11.0641C21.5651 11.0641 21.6655 10.9511 21.7032 10.7879C22.1301 8.40231 22.1426 8.25164 24.6664 7.81219C24.8421 7.78708 24.9551 7.67407 24.9551 7.49829C24.9551 7.32252 24.8421 7.22206 24.6664 7.1844C22.1426 6.7575 22.1301 6.60683 21.7032 4.22122C21.6655 4.058 21.5651 3.93244 21.3893 3.93244C21.2135 3.93244 21.1131 4.058 21.0754 4.22122C20.6485 6.60683 20.636 6.7575 18.1122 7.1844C17.9491 7.22206 17.8235 7.32252 17.8235 7.49829C17.8235 7.67407 17.9491 7.78708 18.1122 7.81219C20.636 8.25164 20.6485 8.40231 21.0754 10.7879C21.1131 10.9511 21.2135 11.0641 21.3893 11.0641ZM25.583 25.4029C26.1102 25.9428 27.0143 25.9428 27.5165 25.4029C28.0313 24.8505 28.0313 23.9966 27.5165 23.4693L15.576 11.491C15.0486 10.9637 14.1446 10.9637 13.6423 11.491C13.115 12.0435 13.1276 12.9098 13.6423 13.4372L25.583 25.4029ZM18.2754 16.777L14.5966 13.0856C14.3706 12.8596 14.2953 12.6085 14.5212 12.3951C14.7096 12.1941 14.9733 12.2444 15.2119 12.483L18.9033 16.1744L18.2754 16.777Z" fill="#0A66C2"/>
</svg>
