<svg width="25" height="24" viewBox="0 0 25 24" fill="none" xmlns="http://www.w3.org/2000/svg">
<path d="M2.4205 0.329505C1.98116 -0.109835 1.26884 -0.109835 0.829505 0.329505C0.390165 0.768845 0.390165 1.48116 0.829505 1.9205L5.65901 6.75H1.625C1.00368 6.75 0.5 7.25368 0.5 7.875C0.5 8.49632 1.00368 9 1.625 9H8.375C8.99632 9 9.5 8.49632 9.5 7.875V1.125C9.5 0.50368 8.99632 0 8.375 0C7.75368 0 7.25 0.50368 7.25 1.125V5.15901L2.4205 0.329505Z" fill="#0A66C2"/>
<path d="M17.75 1.125C17.75 0.50368 17.2463 0 16.625 0C16.0037 0 15.5 0.50368 15.5 1.125V7.875C15.5 8.49632 16.0037 9 16.625 9H23.375C23.9963 9 24.5 8.49632 24.5 7.875C24.5 7.25368 23.9963 6.75 23.375 6.75H19.341L24.1705 1.9205C24.6098 1.48116 24.6098 0.768845 24.1705 0.329505C23.7312 -0.109835 23.0188 -0.109835 22.5795 0.329505L17.75 5.15901V1.125Z" fill="#0A66C2"/>
<path d="M2.4205 23.6705L7.25 18.841V22.875C7.25 23.4963 7.75368 24 8.375 24C8.99632 24 9.5 23.4963 9.5 22.875V16.125C9.5 15.5037 8.99632 15 8.375 15H1.625C1.00368 15 0.5 15.5037 0.5 16.125C0.5 16.7463 1.00368 17.25 1.625 17.25H5.65901L0.829505 22.0795C0.390165 22.5188 0.390165 23.2312 0.829505 23.6705C1.26884 24.1098 1.98116 24.1098 2.4205 23.6705Z" fill="#0A66C2"/>
<path d="M17.75 18.841L22.5795 23.6705C23.0188 24.1098 23.7312 24.1098 24.1705 23.6705C24.6098 23.2312 24.6098 22.5188 24.1705 22.0795L19.341 17.25H23.375C23.9963 17.25 24.5 16.7463 24.5 16.125C24.5 15.5037 23.9963 15 23.375 15H16.625C16.0037 15 15.5 15.5037 15.5 16.125V22.875C15.5 23.4963 16.0037 24 16.625 24C17.2463 24 17.75 23.4963 17.75 22.875V18.841Z" fill="#0A66C2"/>
</svg>
