<svg width="27" height="25" viewBox="0 0 27 25" fill="none" xmlns="http://www.w3.org/2000/svg">
<path fill-rule="evenodd" clip-rule="evenodd" d="M5.34766 4.94859C5.58973 4.16185 6.31661 3.625 7.13974 3.625H9.75C10.2678 3.625 10.6875 3.20527 10.6875 2.6875C10.6875 2.16973 10.2678 1.75 9.75 1.75H7.13974C5.49347 1.75 4.03971 2.82371 3.55557 4.39718L0.540829 14.1951C0.430894 14.5524 0.375 14.9241 0.375 15.2979V20.5C0.375 22.5711 2.05393 24.25 4.125 24.25H22.875C24.9461 24.25 26.625 22.5711 26.625 20.5V15.2979C26.625 14.9241 26.5691 14.5524 26.4592 14.1951L23.4444 4.39718C22.9603 2.82371 21.5065 1.75 19.8603 1.75H17.25C16.7322 1.75 16.3125 2.16973 16.3125 2.6875C16.3125 3.20527 16.7322 3.625 17.25 3.625H19.8603C20.6834 3.625 21.4103 4.16185 21.6523 4.94859L24.4182 13.9375H20.8632C19.4428 13.9375 18.1443 14.74 17.5091 16.0104L17.1888 16.651C16.8712 17.2862 16.222 17.6875 15.5118 17.6875H11.4882C10.778 17.6875 10.1288 17.2862 9.81117 16.651L9.49088 16.0104C8.85566 14.74 7.55717 13.9375 6.13678 13.9375H2.58184L5.34766 4.94859Z" fill="#0A66C2"/>
<path fill-rule="evenodd" clip-rule="evenodd" d="M13.5 0.8125C14.0178 0.8125 14.4375 1.23223 14.4375 1.75V9.79918L16.5871 7.64959C16.9532 7.28347 17.5468 7.28347 17.9129 7.64959C18.279 8.0157 18.279 8.6093 17.9129 8.97541L14.1629 12.7254C13.7968 13.0915 13.2032 13.0915 12.8371 12.7254L9.08709 8.97541C8.72097 8.6093 8.72097 8.0157 9.08709 7.64959C9.4532 7.28347 10.0468 7.28347 10.4129 7.64959L12.5625 9.79918V1.75C12.5625 1.23223 12.9822 0.8125 13.5 0.8125Z" fill="#0A66C2"/>
</svg>
