<svg width="23" height="26" viewBox="0 0 23 26" fill="none" xmlns="http://www.w3.org/2000/svg">
<path d="M19.4688 0.8125C18.1743 0.8125 17.125 1.86183 17.125 3.15625V22.8438C17.125 24.1382 18.1743 25.1875 19.4688 25.1875H20.4062C21.7007 25.1875 22.75 24.1382 22.75 22.8438V3.15625C22.75 1.86183 21.7007 0.8125 20.4062 0.8125H19.4688Z" fill="#0A66C2"/>
<path d="M8.6875 8.78125C8.6875 7.48683 9.73683 6.4375 11.0312 6.4375H11.9688C13.2632 6.4375 14.3125 7.48683 14.3125 8.78125V22.8438C14.3125 24.1382 13.2632 25.1875 11.9688 25.1875H11.0312C9.73683 25.1875 8.6875 24.1382 8.6875 22.8438V8.78125Z" fill="#0A66C2"/>
<path d="M0.25 14.4062C0.25 13.1118 1.29933 12.0625 2.59375 12.0625H3.53125C4.82567 12.0625 5.875 13.1118 5.875 14.4062V22.8438C5.875 24.1382 4.82567 25.1875 3.53125 25.1875H2.59375C1.29933 25.1875 0.25 24.1382 0.25 22.8438V14.4062Z" fill="#0A66C2"/>
</svg>
