<svg width="30" height="22" viewBox="0 0 30 22" fill="none" xmlns="http://www.w3.org/2000/svg">
<path d="M4.99591 9.28709C5.26966 9.25546 5.55395 9.23444 5.82771 9.23444C6.12251 9.23444 6.4068 9.25546 6.69108 9.2976V7.00225H4.99591V9.28709ZM4.99591 5.5598H6.69108V3.35923C6.69108 2.2642 7.27019 1.70617 8.32309 1.70617H10.5026V0.0109863H8.30203C6.10146 0.0109863 4.99591 1.09548 4.99591 3.27499V5.5598ZM11.9451 1.70617H16.6937V0.0109863H11.9451V1.70617ZM18.1257 1.70617H22.8742V0.0109863H18.1257V1.70617ZM29.8234 5.5598V3.27499C29.8234 1.09548 28.7178 0.0109863 26.5173 0.0109863H24.3167V1.70617H26.4963C27.5492 1.70617 28.1282 2.2642 28.1282 3.35923V5.5598H29.8234ZM29.8234 12.4036V7.00225H28.1282V12.4036H29.8234ZM26.5173 19.395C28.7178 19.395 29.8234 18.3105 29.8234 16.131V13.8462H28.1282V16.0467C28.1282 17.1418 27.5492 17.6998 26.4963 17.6998H24.3167V19.395H26.5173ZM18.1257 19.395H22.8742V17.6998H18.1257V19.395ZM11.7345 19.3845L16.6937 19.395V17.6998H12.3978C12.2609 18.3 12.0399 18.858 11.7345 19.3845ZM5.84876 21.3849C8.77584 21.3849 11.1975 18.9633 11.1975 16.0362C11.1975 13.1196 8.76531 10.6875 5.83824 10.6875C2.92168 10.6875 0.5 13.1196 0.5 16.0362C0.5 18.9633 2.93221 21.3849 5.84876 21.3849ZM5.84876 20.1215C3.58501 20.1215 1.77402 18.3 1.77402 16.0362C1.77402 13.783 3.58501 11.9509 5.83824 11.9509C8.10198 11.9509 9.92352 13.783 9.93404 16.0362C9.94455 18.3 8.10198 20.1215 5.84876 20.1215ZM5.83824 19.2055C7.58606 19.2055 9.00748 17.7735 9.00748 16.0467C9.00748 14.3094 7.57553 12.8775 5.83824 12.8775C4.10094 12.8775 2.67951 14.3094 2.67951 16.0467C2.67951 17.7735 4.11147 19.2055 5.83824 19.2055Z" fill="#0A66C2"/>
</svg>
