<svg width="23" height="24" viewBox="0 0 23 24" fill="none" xmlns="http://www.w3.org/2000/svg">
<path d="M4 0.75C1.92893 0.75 0.25 2.42893 0.25 4.5V7.3125C0.25 9.38357 1.92893 11.0625 4 11.0625H6.8125C8.88357 11.0625 10.5625 9.38357 10.5625 7.3125V4.5C10.5625 2.42893 8.88357 0.75 6.8125 0.75H4Z" fill="#0A66C2"/>
<path d="M16.1875 0.75C14.1164 0.75 12.4375 2.42893 12.4375 4.5V7.3125C12.4375 9.38357 14.1164 11.0625 16.1875 11.0625H19C21.0711 11.0625 22.75 9.38357 22.75 7.3125V4.5C22.75 2.42893 21.0711 0.75 19 0.75H16.1875Z" fill="#0A66C2"/>
<path d="M4 12.9375C1.92893 12.9375 0.25 14.6164 0.25 16.6875V19.5C0.25 21.5711 1.92893 23.25 4 23.25H6.8125C8.88357 23.25 10.5625 21.5711 10.5625 19.5V16.6875C10.5625 14.6164 8.88357 12.9375 6.8125 12.9375H4Z" fill="#0A66C2"/>
<path d="M18.5312 13.875C18.5312 13.3572 18.1115 12.9375 17.5938 12.9375C17.076 12.9375 16.6562 13.3572 16.6562 13.875V17.1562H13.375C12.8572 17.1562 12.4375 17.576 12.4375 18.0938C12.4375 18.6115 12.8572 19.0312 13.375 19.0312H16.6562V22.3125C16.6562 22.8303 17.076 23.25 17.5938 23.25C18.1115 23.25 18.5312 22.8303 18.5312 22.3125V19.0312H21.8125C22.3303 19.0312 22.75 18.6115 22.75 18.0938C22.75 17.576 22.3303 17.1562 21.8125 17.1562H18.5312V13.875Z" fill="#0A66C2"/>
</svg>
