<svg width="31" height="25" viewBox="0 0 31 25" fill="none" xmlns="http://www.w3.org/2000/svg">
<path d="M3.72748 20.44H27.2194C29.2421 20.44 30.2593 19.4819 30.2593 17.4V3.84431C30.2593 1.77429 29.2421 0.816162 27.2194 0.816162H3.72748C1.70477 0.816162 0.6875 1.77429 0.6875 3.84431V17.4C0.6875 19.4819 1.70477 20.44 3.72748 20.44ZM9.52355 24.45H21.4233C21.9437 24.45 22.3814 24.0241 22.3814 23.4918C22.3814 22.9595 21.9437 22.5337 21.4233 22.5337H9.52355C9.00309 22.5337 8.56543 22.9595 8.56543 23.4918C8.56543 24.0241 9.00309 24.45 9.52355 24.45ZM16.0885 15.5311C15.8283 15.5311 15.6626 15.3773 15.6272 15.1289C15.1067 11.5684 14.6454 10.776 10.9075 10.3974C10.6591 10.3619 10.5053 10.1845 10.5053 9.94793C10.5053 9.72318 10.6591 9.53392 10.9075 9.49844C14.6335 9.00164 14.9529 8.35106 15.6272 4.75513C15.6863 4.51855 15.8519 4.36478 16.0885 4.36478C16.3133 4.36478 16.4906 4.53038 16.5261 4.76696C17.0585 8.29191 17.5434 9.00164 21.2576 9.49844C21.4942 9.53392 21.6598 9.72318 21.6598 9.94793C21.6598 10.1845 21.4942 10.3619 21.2576 10.3974C17.5316 10.8943 17.2004 11.5684 16.5261 15.1407C16.4788 15.3773 16.3133 15.5311 16.0885 15.5311ZM11.286 17.5302C11.0968 17.5302 11.0022 17.4 10.943 17.2108C10.5881 15.4719 10.7419 15.3891 8.82566 15.1052C8.62457 15.0698 8.51811 14.9515 8.51811 14.7622C8.51811 14.5966 8.62457 14.4547 8.802 14.431C10.7419 14.1117 10.5881 14.0288 10.943 12.3018C11.0022 12.1126 11.1086 11.9825 11.286 11.9825C11.4635 11.9825 11.5818 12.1244 11.629 12.3018C11.9603 14.0288 11.842 14.1117 13.7819 14.431C13.9475 14.4547 14.0658 14.5966 14.0658 14.7622C14.0658 14.9279 13.9475 15.0698 13.7819 15.1052C11.842 15.3891 11.9603 15.4719 11.629 17.2462C11.5818 17.4118 11.4517 17.5302 11.286 17.5302Z" fill="#0A66C2"/>
</svg>
