<svg width="26" height="26" viewBox="0 0 26 26" fill="none" xmlns="http://www.w3.org/2000/svg">
<path d="M13.788 2.8885C14.3604 2.8885 14.7958 2.45303 14.7958 1.8807C14.7958 1.32082 14.3604 0.885342 13.788 0.885342H4.68051L6.65878 2.8885H13.788ZM17.2842 6.44691C17.8441 6.44691 18.292 5.999 18.292 5.42666C18.292 4.86678 17.8441 4.44375 17.2842 4.44375H8.15182L10.1301 6.44691H17.2842ZM20.7057 9.99287C21.2657 9.99287 21.7012 9.54497 21.7012 8.97264C21.7012 8.41274 21.2657 7.98972 20.7057 7.98972H11.6232L13.6014 9.99287H20.7057ZM24.1647 11.5357H15.0945C15.841 12.2946 16.1769 12.755 16.2267 13.5389H24.1647C24.7245 13.5389 25.1725 13.1034 25.1725 12.5311C25.1725 11.9711 24.7245 11.5357 24.1647 11.5357ZM12.6558 23.8284L8.18915 13.3896L7.59194 14.4098L13.788 14.7581C14.6217 14.8079 15.0198 13.9121 14.4226 13.3024L2.10502 0.711155C1.55757 0.151265 0.711514 0.462315 0.711514 1.24616L0.5 18.7645C0.5 19.6229 1.45803 19.9714 2.00548 19.3368L6.0118 14.9074L4.85469 14.6089L9.17207 25.2841C9.34625 25.7071 9.78173 25.9062 10.1674 25.732L12.3075 24.8486C12.7056 24.6993 12.8425 24.239 12.6558 23.8284Z" fill="#0A66C2"/>
</svg>
