<svg width="31" height="27" viewBox="0 0 31 27" fill="none" xmlns="http://www.w3.org/2000/svg">
<path d="M6.05299 26.0564C6.89631 26.0564 7.56854 25.3842 7.56854 24.5409C7.56854 23.6975 6.8841 23.0254 6.05299 23.0254C5.20967 23.0254 4.53746 23.7097 4.53746 24.5409C4.53746 25.3964 5.2219 26.0564 6.05299 26.0564ZM2.21526 16.7553C3.05859 16.7553 3.7308 16.0587 3.7308 15.2276C3.7308 14.3721 3.03414 13.7121 2.21526 13.7121C1.37194 13.7121 0.6875 14.3965 0.6875 15.2276C0.6875 16.071 1.38416 16.7553 2.21526 16.7553ZM6.05299 7.45437C6.89631 7.45437 7.56854 6.76993 7.56854 5.93882C7.56854 5.08328 6.8841 4.42329 6.05299 4.42329C5.20967 4.42329 4.53746 5.0955 4.53746 5.93882C4.53746 6.78215 5.2219 7.45437 6.05299 7.45437ZM15.4273 3.5433C16.2707 3.5433 16.9428 2.85886 16.9428 2.01553C16.9428 1.17221 16.2584 0.5 15.4273 0.5C14.5718 0.5 13.9118 1.18444 13.9118 2.01553C13.9118 2.87109 14.584 3.5433 15.4273 3.5433ZM24.7895 7.42992C25.6328 7.42992 26.305 6.74548 26.305 5.91439C26.305 5.05883 25.6205 4.39884 24.7895 4.39884C23.9339 4.39884 23.2617 5.07106 23.2617 5.91439C23.2617 6.75771 23.9461 7.42992 24.7895 7.42992ZM28.6394 16.7553C29.4828 16.7553 30.1671 16.0587 30.1671 15.2276C30.1671 14.3721 29.4706 13.7121 28.6394 13.7121C27.7839 13.7121 27.1116 14.3965 27.1116 15.2276C27.1116 16.071 27.8083 16.7553 28.6394 16.7553ZM24.7773 26.0686C25.6205 26.0686 26.2928 25.3964 26.2928 24.5531C26.2928 23.7097 25.6083 23.0376 24.7773 23.0376C23.9216 23.0376 23.2495 23.7219 23.2495 24.5531C23.2495 25.4086 23.9339 26.0686 24.7773 26.0686ZM15.4273 24.1252C20.3284 24.1252 24.3127 20.1532 24.3127 15.2276C24.3127 10.6321 20.8173 6.85548 16.3318 6.40327L16.3196 15.411C16.3196 15.8998 15.8917 16.3276 15.4273 16.3154C14.8896 16.2909 14.5107 15.912 14.5107 15.3865V6.40327C10.0374 6.85548 6.52965 10.6321 6.52965 15.2276C6.52965 20.1654 10.5263 24.1252 15.4273 24.1252Z" fill="#0A66C2"/>
</svg>
