<svg width="19" height="28" viewBox="0 0 19 28" fill="none" xmlns="http://www.w3.org/2000/svg">
<path d="M2.01445 27.215C2.67915 27.215 3.00442 26.8615 3.11756 26.2816L5.91777 12.0261L4.50352 13.1716H15.0538L13.6395 12.0261L16.4397 26.2816C16.5529 26.8615 16.8782 27.215 17.5429 27.215C18.4903 27.215 18.8157 26.5645 18.66 25.8007L16.0154 12.3372C15.8457 11.4462 15.0962 10.7957 14.2335 10.7957H5.33793C4.47523 10.7957 3.72569 11.4462 3.55597 12.3372L0.911347 25.8007C0.75578 26.5645 1.0952 27.215 2.01445 27.215ZM5.02679 11.9412H14.5446L11.0232 1.4334C10.811 0.839418 10.4151 0.5 9.80693 0.5C9.17052 0.5 8.73211 0.839418 8.5341 1.4334L5.02679 11.9412Z" fill="#0A66C2"/>
</svg>
