<svg width="29" height="22" viewBox="0 0 29 22" fill="none" xmlns="http://www.w3.org/2000/svg">
<path d="M2.84766 13.4525H10.4275C12.2021 13.4525 13.2362 12.4418 13.2362 10.6909V3.11096C13.2362 1.35996 12.2021 0.349306 10.4275 0.349306H2.84766C1.0849 0.349306 0.0625 1.3482 0.0625 3.11096V10.6909C0.0625 12.4536 1.0849 13.4525 2.84766 13.4525ZM18.1249 13.6053H25.8576C27.6909 13.6053 28.7368 12.5712 28.7368 10.7848V3.0287C28.7368 1.23068 27.6909 0.196533 25.8576 0.196533H18.1249C16.3034 0.196533 15.2575 1.23068 15.2575 3.0287V10.7848C15.2575 12.5712 16.3034 13.6053 18.1249 13.6053ZM18.1485 11.7485C17.4551 11.7485 17.1143 11.4077 17.1143 10.7026V3.09921C17.1143 2.39411 17.4551 2.05331 18.1485 2.05331H25.8341C26.551 2.05331 26.88 2.39411 26.88 3.09921V10.7026C26.88 11.4077 26.551 11.7485 25.8341 11.7485H18.1485ZM0.955633 17.8477C0.473811 17.8477 0.0625 18.2708 0.0625 18.7995C0.0625 19.3283 0.473811 19.7397 0.955633 19.7397H4.75144V17.8477H0.955633ZM6.79625 21.62C8.34748 21.62 9.61666 20.3508 9.61666 18.7995C9.61666 17.2366 8.34748 15.9674 6.79625 15.9674C5.24502 15.9674 3.97583 17.2366 3.97583 18.7995C3.97583 20.3508 5.24502 21.62 6.79625 21.62ZM6.79625 20.1745C6.02064 20.1745 5.4213 19.5634 5.4213 18.7878C5.4213 18.0121 6.02064 17.4129 6.79625 17.4129C7.56011 17.4129 8.17121 18.0121 8.17121 18.7878C8.17121 19.5634 7.56011 20.1745 6.79625 20.1745ZM8.66477 17.8477V19.7397H27.7848C28.3137 19.7397 28.7368 19.3283 28.7368 18.7995C28.7368 18.2708 28.3137 17.8477 27.7848 17.8477H8.66477Z" fill="#0A66C2"/>
</svg>
