<svg width="25" height="27" viewBox="0 0 25 27" fill="none" xmlns="http://www.w3.org/2000/svg">
<path d="M0.5 14.7733V16.5502C0.5 18.8816 1.67704 20.0587 4.05374 20.0587H6.91711V18.2365H4.07637C2.94461 18.2365 2.32214 17.6254 2.32214 16.4483V14.7733H0.5ZM2.32214 13.2228V8.08459H0.5V13.2228H2.32214ZM2.32214 6.54538V5.19859C2.32214 4.02155 2.94461 3.4104 4.07637 3.4104H5.71743V1.58826H4.05374C1.67704 1.58826 0.5 2.76529 0.5 5.09673V6.54538H2.32214ZM12.3948 1.58826H7.25663V3.4104H12.3948V1.58826ZM13.9341 3.4104H15.3828C16.5031 3.4104 17.137 4.02155 17.137 5.19859V7.67715H18.9591V5.09673C18.9591 2.76529 17.7707 1.58826 15.4166 1.58826H13.9341V3.4104ZM24.4482 19.0967V10.3368C24.4482 8.00536 23.2598 6.82833 20.9057 6.82833H9.5428C7.16609 6.82833 5.98906 7.99404 5.98906 10.3368V21.7903C5.98906 24.1217 7.16609 25.2988 9.5428 25.2988H15.2469V23.4766H9.56544C8.44499 23.4766 7.8112 22.8654 7.8112 21.6884V10.4387C7.8112 9.26162 8.44499 8.65047 9.56544 8.65047H20.8718C21.9922 8.65047 22.626 9.26162 22.626 10.4387V17.2632L24.4482 19.0967ZM16.2655 23.2503C16.2542 23.6916 16.7748 23.8274 17.0577 23.5558L18.7893 21.8242L20.7246 26.6002C20.8152 26.8153 21.0415 26.9172 21.2453 26.8379L22.377 26.3853C22.5695 26.2947 22.6599 26.057 22.5468 25.842L20.521 21.1339L22.9655 21.0433C23.3843 21.0207 23.5994 20.6019 23.2938 20.285L17.103 13.9245C16.82 13.6302 16.3787 13.8 16.3674 14.2187L16.2655 23.2503Z" fill="#0A66C2"/>
</svg>
