<svg width="21" height="28" viewBox="0 0 21 28" fill="none" xmlns="http://www.w3.org/2000/svg">
<path d="M6.28296 23.1357H17.0999C19.196 23.1357 20.2441 22.0775 20.2441 19.9405V7.5973C20.2441 5.47056 19.196 4.4021 17.0999 4.4021H7.3616L9.03044 6.04041H17.0083C18.0665 6.04041 18.6058 6.60007 18.6058 7.61766V19.9202C18.6058 20.9378 18.0665 21.4974 17.0184 21.4974H6.36437C5.31627 21.4974 4.76677 20.9378 4.76677 19.9202V12.6547H3.12847V19.9405C3.12847 22.0775 4.18675 23.1357 6.28296 23.1357ZM7.82969 10.4059H15.3191C15.6752 10.4059 15.9499 10.1311 15.9499 9.77492C15.9499 9.42898 15.6752 9.15423 15.3191 9.15423H7.82969C7.45318 9.15423 7.18861 9.42898 7.18861 9.77492C7.18861 10.1311 7.45318 10.4059 7.82969 10.4059ZM7.82969 14.3947H15.3191C15.6752 14.3947 15.9499 14.1098 15.9499 13.7536C15.9499 13.4077 15.6752 13.1431 15.3191 13.1431H7.82969C7.45318 13.1431 7.18861 13.4077 7.18861 13.7536C7.18861 14.1098 7.45318 14.3947 7.82969 14.3947ZM7.82969 18.3734H15.3191C15.6752 18.3734 15.9499 18.1089 15.9499 17.7629C15.9499 17.4068 15.6752 17.1218 15.3191 17.1218H7.82969C7.45318 17.1218 7.18861 17.4068 7.18861 17.7629C7.18861 18.1089 7.45318 18.3734 7.82969 18.3734ZM0.187663 8.5233C0.177487 8.90997 0.645574 9.04231 0.899968 8.78788L2.45687 7.23098L4.19693 11.5251C4.27834 11.7185 4.48185 11.8101 4.66501 11.7388L5.68259 11.3318C5.85558 11.2504 5.92681 11.0367 5.83523 10.8434L4.01376 6.62043L6.20156 6.52884C6.58824 6.50849 6.78158 6.14217 6.50683 5.84707L0.940672 0.128277C0.686277 -0.126118 0.289421 0.0163431 0.279246 0.392847L0.187663 8.5233Z" fill="#0A66C2"/>
</svg>
