<svg width="29" height="30" viewBox="0 0 29 30" fill="none" xmlns="http://www.w3.org/2000/svg">
<path d="M0.625 14.6577C0.625 19.9517 3.67977 24.6237 7.85419 26.9182C9.30555 27.7338 10.5081 25.7986 8.90469 24.8726C5.43523 22.9373 2.98866 19.0947 2.98866 14.6577C2.98866 8.13346 8.18593 2.90854 14.7101 2.90854C21.2344 2.90854 26.4732 8.13346 26.4732 14.6577C26.4732 15.487 27.1089 15.8879 27.7172 15.8879C28.2839 15.8879 28.8229 15.4732 28.8229 14.6577C28.8229 6.94472 22.4232 0.558716 14.7101 0.558716C7.01101 0.558716 0.625 6.94472 0.625 14.6577ZM6.20931 14.6577C6.20931 17.7401 7.89565 20.3249 9.91374 21.6243C11.3098 22.5641 12.5123 20.6981 11.3375 19.8964C9.62347 18.7768 8.49002 16.8555 8.49002 14.6577C8.49002 11.1744 11.2545 8.40992 14.7101 8.40992C18.1658 8.40992 20.8335 11.1606 20.958 14.6577C20.9856 15.2936 21.4694 15.7911 22.1052 15.7911C22.741 15.7911 23.2387 15.2936 23.2387 14.6577C23.2387 9.98567 19.3821 6.12919 14.7101 6.12919C10.0658 6.12919 6.20931 9.98567 6.20931 14.6577ZM14.1849 24.6652C14.1711 25.2043 14.8069 25.384 15.1525 25.0384L17.2674 22.9235L19.631 28.7566C19.7415 29.0193 20.018 29.1438 20.2668 29.0469L21.6352 28.4941C21.884 28.3834 21.9808 28.0932 21.8564 27.8306L19.3821 22.0804L22.354 21.9698C22.8793 21.9422 23.128 21.4307 22.7548 21.0437L15.2078 13.2754C14.8484 12.916 14.3231 13.1234 14.3093 13.6348L14.1849 24.6652Z" fill="#0A66C2"/>
</svg>
