<svg width="29" height="21" viewBox="0 0 29 21" fill="none" xmlns="http://www.w3.org/2000/svg">
<path d="M0.8125 15.3406C0.8125 15.5676 0.926005 15.8359 1.10142 16.0113L5.65197 20.6754C5.84803 20.8818 6.08536 20.985 6.34332 20.985C6.59097 20.985 6.8283 20.8818 7.02436 20.6754L11.5852 16.0113C11.7606 15.8359 11.8638 15.5676 11.8638 15.3406C11.8638 14.7937 11.4924 14.4326 10.9558 14.4326C10.6875 14.4326 10.4812 14.5151 10.3264 14.6802L8.83013 16.259L7.1585 18.1783L7.26169 15.7946V5.94031L7.1585 3.55669L8.83013 5.47597L10.3264 7.05473C10.4812 7.21983 10.6875 7.30238 10.9558 7.30238C11.4924 7.30238 11.8638 6.94122 11.8638 6.39433C11.8638 6.16731 11.7606 5.89903 11.5852 5.72362L7.02436 1.05956C6.8283 0.853187 6.59097 0.75 6.34332 0.75C6.08536 0.75 5.84803 0.853187 5.65197 1.05956L1.10142 5.72362C0.926005 5.89903 0.8125 6.16731 0.8125 6.39433C0.8125 6.94122 1.18397 7.30238 1.72055 7.30238C1.98883 7.30238 2.20552 7.20951 2.34998 7.05473L3.85652 5.47597L5.51783 3.55669L5.41464 5.94031V15.7946L5.51783 18.1783L3.85652 16.259L2.34998 14.6802C2.20552 14.5254 1.98883 14.4326 1.72055 14.4326C1.18397 14.4326 0.8125 14.7937 0.8125 15.3406ZM13.8759 8.13819C13.8759 8.43743 14.103 8.67476 14.4228 8.71604C19.283 9.26293 19.995 9.94396 20.645 14.9588C20.6966 15.2684 20.934 15.4748 21.2126 15.4748C21.5015 15.4748 21.7388 15.2684 21.7904 14.9588C22.4405 9.94396 23.1422 9.26293 28.0023 8.71604C28.3325 8.67476 28.5492 8.43743 28.5492 8.13819C28.5492 7.83895 28.3325 7.60162 28.0023 7.56035C23.1525 7.01345 22.4405 6.32209 21.7904 1.31753C21.7388 1.01829 21.5118 0.811912 21.2126 0.811912C20.9236 0.811912 20.6966 1.01829 20.645 1.31753C19.9537 6.29114 19.2933 6.91026 14.4228 7.56035C14.103 7.60162 13.8759 7.83895 13.8759 8.13819ZM12.8957 17.1258C12.8957 17.3321 13.0401 17.5075 13.2671 17.5591C15.8984 18.0544 15.95 18.0235 16.2492 20.5C16.2905 20.7373 16.4556 20.9127 16.6826 20.9127C16.92 20.9127 17.0851 20.7476 17.1263 20.5103C17.4565 17.9203 17.57 17.9203 20.0878 17.5591C20.3252 17.5179 20.4799 17.3425 20.4799 17.1258C20.4799 16.9194 20.3355 16.7336 20.0981 16.6924C17.5391 16.1971 17.4669 16.259 17.1263 13.7309C17.0851 13.5039 16.9096 13.3388 16.6826 13.3388C16.4556 13.3388 16.2905 13.5142 16.2492 13.7515C15.95 16.228 15.8881 16.2693 13.3084 16.6924C13.0504 16.7336 12.8957 16.8987 12.8957 17.1258Z" fill="#0A66C2"/>
</svg>
