<svg width="25" height="24" viewBox="0 0 25 24" fill="none" xmlns="http://www.w3.org/2000/svg">
<path fill-rule="evenodd" clip-rule="evenodd" d="M0.3125 4.5C0.3125 2.42893 1.99143 0.75 4.0625 0.75H20.9375C23.0086 0.75 24.6875 2.42893 24.6875 4.5V19.5C24.6875 21.5711 23.0086 23.25 20.9375 23.25H4.0625C1.99143 23.25 0.3125 21.5711 0.3125 19.5V4.5ZM5.27459 5.71209C5.6407 5.34597 6.2343 5.34597 6.60041 5.71209L9.41291 8.52459C9.77903 8.8907 9.77903 9.4843 9.41291 9.85041L6.60041 12.6629C6.2343 13.029 5.6407 13.029 5.27459 12.6629C4.90847 12.2968 4.90847 11.7032 5.27459 11.3371L7.42418 9.1875L5.27459 7.03791C4.90847 6.6718 4.90847 6.0782 5.27459 5.71209ZM10.625 11.0625C10.1072 11.0625 9.6875 11.4822 9.6875 12C9.6875 12.5178 10.1072 12.9375 10.625 12.9375H14.375C14.8928 12.9375 15.3125 12.5178 15.3125 12C15.3125 11.4822 14.8928 11.0625 14.375 11.0625H10.625Z" fill="#0A66C2"/>
</svg>
