<svg width="29" height="24" viewBox="0 0 29 24" fill="none" xmlns="http://www.w3.org/2000/svg">
<path fill-rule="evenodd" clip-rule="evenodd" d="M8.9205 4.82944C9.35983 5.26878 9.35983 5.98109 8.9205 6.42043L3.34099 11.9999L8.9205 17.5794C9.35983 18.0188 9.35983 18.7311 8.9205 19.1704C8.48116 19.6098 7.76884 19.6098 7.3295 19.1704L0.954505 12.7954C0.515165 12.3561 0.515165 11.6438 0.954505 11.2044L7.3295 4.82944C7.76884 4.3901 8.48116 4.3901 8.9205 4.82944ZM20.0795 4.82944C20.5188 4.3901 21.2312 4.3901 21.6705 4.82944L28.0455 11.2044C28.4848 11.6438 28.4848 12.3561 28.0455 12.7954L21.6705 19.1704C21.2312 19.6098 20.5188 19.6098 20.0795 19.1704C19.6402 18.7311 19.6402 18.0188 20.0795 17.5794L25.659 11.9999L20.0795 6.42043C19.6402 5.98109 19.6402 5.26878 20.0795 4.82944Z" fill="#0A66C2"/>
<path fill-rule="evenodd" clip-rule="evenodd" d="M16.5661 0.0162963C17.1784 0.121863 17.5892 0.703798 17.4836 1.31608L13.7336 23.0661C13.6281 23.6784 13.0461 24.0891 12.4339 23.9836C11.8216 23.878 11.4108 23.2961 11.5164 22.6838L15.2664 0.933794C15.3719 0.321507 15.9539 -0.0892704 16.5661 0.0162963Z" fill="#0A66C2"/>
</svg>
