<svg width="27" height="24" viewBox="0 0 27 24" fill="none" xmlns="http://www.w3.org/2000/svg">
<path d="M1.94887 14.5193C2.67711 14.5193 3.25467 13.9416 3.25467 13.2259C3.25467 12.4977 2.67711 11.9202 1.94887 11.9202C1.22063 11.9202 0.643066 12.4977 0.643066 13.2259C0.643066 13.9416 1.22063 14.5193 1.94887 14.5193ZM4.91205 5.71759C5.64027 5.71759 6.21784 5.12747 6.21784 4.4118C6.21784 3.68356 5.64027 3.10599 4.91205 3.10599C4.19636 3.10599 3.60623 3.68356 3.60623 4.4118C3.60623 5.12747 4.19636 5.71759 4.91205 5.71759ZM13.7388 2.75443C14.4544 2.75443 15.032 2.17687 15.032 1.44863C15.032 0.732945 14.4544 0.142822 13.7388 0.142822C13.0106 0.142822 12.433 0.732945 12.433 1.44863C12.433 2.17687 13.0106 2.75443 13.7388 2.75443ZM22.5529 5.71759C23.2812 5.71759 23.8588 5.12747 23.8588 4.4118C23.8588 3.68356 23.2812 3.10599 22.5529 3.10599C21.8247 3.10599 21.2472 3.68356 21.2472 4.4118C21.2472 5.12747 21.8247 5.71759 22.5529 5.71759ZM25.5287 14.5193C26.2443 14.5193 26.8219 13.9416 26.8219 13.2259C26.8219 12.4977 26.2443 11.9202 25.5287 11.9202C24.8005 11.9202 24.2229 12.4977 24.2229 13.2259C24.2229 13.9416 24.8005 14.5193 25.5287 14.5193ZM23.3817 23.7603C23.9341 23.7603 24.4112 23.3083 24.4112 22.7559C24.4112 22.1908 23.9341 21.7262 23.3817 21.7262H21.8499V13.4018C21.8499 8.81889 18.3091 5.27815 13.7388 5.27815C9.1559 5.27815 5.64027 8.81889 5.64027 13.4018V21.7262H4.08336C3.5309 21.7262 3.09145 22.1908 3.09145 22.7559C3.09145 23.3083 3.5309 23.7603 4.08336 23.7603H23.3817ZM14.7934 13.4395V21.7262H12.6966V13.4395C12.6966 12.8619 13.1612 12.3848 13.7388 12.3848C14.3163 12.3848 14.7934 12.8619 14.7934 13.4395Z" fill="#0A66C2"/>
</svg>
