<svg width="27" height="28" viewBox="0 0 27 28" fill="none" xmlns="http://www.w3.org/2000/svg">
<path d="M18.0362 12.875C18.7416 12.875 19.2769 12.2258 18.9922 11.5804C18.0618 9.4718 15.9528 8 13.5 8C13.2806 8 13.064 8.01177 12.8508 8.03472C12.1489 8.11023 11.8537 8.89856 12.2067 9.50988L13.8248 12.3125C14.0257 12.6606 14.3971 12.875 14.799 12.875L18.0362 12.875Z" fill="#0A66C2"/>
<path d="M10.2592 10.6368C9.90617 10.0253 9.0754 9.88667 8.65791 10.4561C7.92991 11.4491 7.5 12.6744 7.5 14C7.5 15.3257 7.92993 16.5509 8.65797 17.544C9.07547 18.1134 9.90623 17.9748 10.2593 17.3633L11.8763 14.5626C12.0772 14.2145 12.0772 13.7857 11.8763 13.4376L10.2592 10.6368Z" fill="#0A66C2"/>
<path d="M12.2068 18.4901C11.8538 19.1015 12.149 19.8898 12.8509 19.9653C13.0641 19.9882 13.2807 20 13.5 20C15.9528 20 18.0619 18.5282 18.9922 16.4195C19.2769 15.7742 18.7416 15.125 18.0362 15.125H14.7992C14.3972 15.125 14.0258 15.3394 13.8249 15.6875L12.2068 18.4901Z" fill="#0A66C2"/>
<path fill-rule="evenodd" clip-rule="evenodd" d="M19.6943 5.52086L20.6616 3.84542C20.9723 3.30734 20.7879 2.6193 20.2498 2.30864C19.7118 1.99798 19.0237 2.18234 18.7131 2.72042L17.7467 4.39423C16.7747 3.9639 15.7253 3.67676 14.625 3.55956V1.625C14.625 1.00368 14.1213 0.5 13.5 0.5C12.8787 0.5 12.375 1.00368 12.375 1.625V3.55956C11.2747 3.67676 10.2252 3.9639 9.2533 4.39423L8.28694 2.72045C7.97628 2.18237 7.28824 1.99801 6.75016 2.30867C6.21208 2.61933 6.02772 3.30737 6.33838 3.84545L7.30569 5.52087C6.43176 6.1604 5.66039 6.93176 5.02087 7.80569L3.34513 6.8382C2.80705 6.52754 2.11901 6.7119 1.80835 7.24998C1.49769 7.78806 1.68205 8.4761 2.22013 8.78676L3.89423 9.7533C3.4639 10.7253 3.17676 11.7747 3.05956 12.875H1.125C0.50368 12.875 0 13.3787 0 14C0 14.6213 0.50368 15.125 1.125 15.125H3.05956C3.17676 16.2253 3.46389 17.2747 3.89422 18.2467L2.22013 19.2132C1.68205 19.5239 1.49769 20.2119 1.80835 20.75C2.11901 21.2881 2.80705 21.4724 3.34513 21.1618L5.02085 20.1943C5.66032 21.0681 6.43162 21.8395 7.30546 22.479L6.33806 24.1546C6.0274 24.6926 6.21176 25.3807 6.74984 25.6913C7.28792 26.002 7.97596 25.8176 8.28662 25.2796L9.25305 23.6057C10.2251 24.036 11.2746 24.3232 12.375 24.4404V26.375C12.375 26.9963 12.8787 27.5 13.5 27.5C14.1213 27.5 14.625 26.9963 14.625 26.375V24.4404C15.7254 24.3232 16.7749 24.0361 17.7469 23.6057L18.7134 25.2796C19.024 25.8177 19.7121 26.002 20.2502 25.6914C20.7882 25.3807 20.9726 24.6927 20.6619 24.1546L19.6945 22.479C20.5683 21.8395 21.3396 21.0682 21.9791 20.1944L23.6546 21.1618C24.1927 21.4724 24.8807 21.2881 25.1914 20.75C25.5021 20.2119 25.3177 19.5239 24.7796 19.2132L23.1057 18.2468C23.5361 17.2748 23.8232 16.2253 23.9404 15.125H25.875C26.4963 15.125 27 14.6213 27 14C27 13.3787 26.4963 12.875 25.875 12.875H23.9404C23.8232 11.7747 23.5361 10.7252 23.1057 9.75319L24.7796 8.78676C25.3177 8.4761 25.5021 7.78806 25.1914 7.24998C24.8807 6.7119 24.1927 6.52754 23.6546 6.8382L21.9791 7.80559C21.3395 6.9317 20.5682 6.16037 19.6943 5.52086ZM13.5 5.75C12.0168 5.75 10.625 6.1414 9.42229 6.82656C9.40689 6.83646 9.39118 6.84605 9.37516 6.8553C9.35967 6.86425 9.34406 6.87278 9.32833 6.8809C8.11002 7.59635 7.09163 8.61561 6.37722 9.8346C6.37011 9.84815 6.3627 9.86161 6.35498 9.87498C6.34695 9.88889 6.33867 9.90256 6.33015 9.91599C5.64277 11.1201 5.25 12.5142 5.25 14C5.25 15.4856 5.64269 16.8796 6.32993 18.0836C6.33853 18.0972 6.34688 18.111 6.35498 18.125C6.36277 18.1385 6.37025 18.1521 6.37742 18.1657C7.09229 19.3854 8.11148 20.4051 9.33074 21.1205C9.34555 21.1282 9.36025 21.1363 9.37484 21.1447C9.39 21.1534 9.40488 21.1625 9.41947 21.1718C10.6228 21.858 12.0156 22.25 13.5 22.25C14.9846 22.25 16.3776 21.8579 17.581 21.1715C17.5955 21.1623 17.6102 21.1534 17.6252 21.1447C17.6396 21.1364 17.6541 21.1284 17.6688 21.1208C18.887 20.4061 19.9055 19.3876 20.6204 18.1695C20.6281 18.1545 20.6363 18.1397 20.6448 18.125C20.6536 18.1097 20.6627 18.0947 20.6721 18.08C21.3581 16.8768 21.75 15.4842 21.75 14C21.75 12.5157 21.358 11.1229 20.6719 9.91961C20.6626 9.90501 20.6535 9.89014 20.6448 9.87498C20.6363 9.86038 20.6283 9.84566 20.6206 9.83085C19.9062 8.61336 18.8885 7.59535 17.6712 6.88062C17.6556 6.87257 17.6402 6.86412 17.6248 6.85527C17.609 6.84611 17.5934 6.83662 17.5782 6.82681C16.3753 6.1415 14.9834 5.75 13.5 5.75Z" fill="#0A66C2"/>
</svg>
