<svg width="16" height="17" viewBox="0 0 16 17" fill="none" xmlns="http://www.w3.org/2000/svg">
<path d="M8.70684 1.80635C8.70684 1.27823 8.27871 0.850098 7.75059 0.850098C7.22246 0.850098 6.79434 1.27823 6.79434 1.80635V7.54385H1.05684C0.528714 7.54385 0.100586 7.97198 0.100586 8.5001C0.100586 9.02822 0.528714 9.45635 1.05684 9.45635L6.79434 9.45635V15.1938C6.79434 15.722 7.22246 16.1501 7.75059 16.1501C8.27871 16.1501 8.70684 15.722 8.70684 15.1938V9.45635H14.4443C14.9725 9.45635 15.4006 9.02822 15.4006 8.5001C15.4006 7.97198 14.9725 7.54385 14.4443 7.54385H8.70684V1.80635Z" fill="white"/>
</svg>
