<svg width="35" height="47" viewBox="0 0 35 47" fill="none" xmlns="http://www.w3.org/2000/svg">
<g clip-path="url(#clip0_198_2)">
<g clip-path="url(#clip1_198_2)">
<path d="M17.0478 14.5167C14.6807 14.5171 12.4108 15.4575 10.737 17.1313C9.06331 18.805 8.12284 21.075 8.12244 23.442C8.15643 24.9789 8.50968 26.4919 9.15976 27.885C9.80984 29.278 10.7425 30.5207 11.8986 31.534C12.5229 32.0569 13.0262 32.7094 13.3734 33.4461C13.7207 34.1828 13.9036 34.9862 13.9097 35.8006V37.3212C13.9072 37.7085 14.0533 38.082 14.3178 38.3648C14.5824 38.6477 14.9453 38.8184 15.3319 38.8418C15.542 38.8556 15.7528 38.8268 15.9516 38.7572C16.1504 38.6875 16.333 38.5784 16.4885 38.4363C16.644 38.2943 16.7693 38.1223 16.8566 37.9307C16.944 37.7391 16.9918 37.5317 16.997 37.3212V28.3959C16.9971 27.817 17.1636 27.2504 17.4767 26.7635C17.7898 26.2766 18.2362 25.8901 18.7629 25.6498L22.7843 23.7864C23.274 23.5631 23.7096 23.2365 24.0612 22.829C24.4128 22.4215 24.672 21.9427 24.8211 21.4255C24.9701 20.9083 25.0055 20.365 24.9248 19.8329C24.844 19.3008 24.6491 18.7924 24.3533 18.3428C23.5389 17.1587 22.4477 16.1913 21.1746 15.5245C19.9015 14.8578 18.4849 14.5118 17.0478 14.5167Z" fill="#0A66C2"/>
<path d="M34.5563 27.611L31.319 22.6579L31.1722 22.2166C30.8566 18.5768 29.1479 15.1994 26.4024 12.7889C23.6569 10.3784 20.0868 9.12109 16.4368 9.27915C12.7867 9.43722 9.33862 10.9985 6.81182 13.6373C4.28501 16.276 2.87463 19.7885 2.87488 23.442C2.90026 25.7388 3.41663 28.0035 4.38933 30.0843C5.36203 32.1651 6.76855 34.0137 8.51451 35.5062C8.55757 35.5428 8.59278 35.5878 8.61802 35.6384C8.64325 35.689 8.65799 35.7442 8.66135 35.8006V43.2061C8.65139 43.8131 8.87479 44.4008 9.28546 44.848C9.69614 45.2951 10.2628 45.5676 10.8685 45.6092L21.9517 46.5932H22.1477C22.7463 46.5826 23.3209 46.3563 23.766 45.9559C24.0094 45.7299 24.2045 45.4569 24.3394 45.1534C24.4743 44.8499 24.5462 44.5222 24.5509 44.1901V39.626H27.7874C28.6971 39.6234 29.5689 39.2608 30.2122 38.6175C30.8555 37.9742 31.2181 37.1025 31.2206 36.1927V31.8784H32.2508C32.7428 31.8821 33.2265 31.7517 33.6499 31.5011C34.0733 31.2505 34.4205 30.8893 34.6539 30.4562C34.8927 30.0163 35.0096 29.5205 34.9924 29.0203C34.9752 28.5201 34.8247 28.0335 34.5563 27.611ZM32.2515 29.2292H30.3389C29.8855 29.2355 29.4525 29.4184 29.1319 29.739C28.8114 30.0595 28.6285 30.4925 28.6222 30.9459V36.1442C28.6227 36.2603 28.6002 36.3753 28.5561 36.4826C28.5119 36.5899 28.4469 36.6874 28.3648 36.7694C28.2828 36.8515 28.1853 36.9165 28.078 36.9606C27.9707 37.0048 27.8557 37.0273 27.7397 37.0268H23.8651C23.6126 37.0225 23.3618 37.069 23.1276 37.1636C22.8934 37.2581 22.6806 37.3988 22.5018 37.5772C22.323 37.7556 22.1819 37.9682 22.0869 38.2022C21.9919 38.4362 21.9449 38.6869 21.9487 38.9395V43.991L11.2083 43.0592V35.8006C11.2008 35.3692 11.1007 34.9444 10.9146 34.5551C10.7285 34.1658 10.4608 33.8211 10.1297 33.5443C8.68444 32.2812 7.51906 30.73 6.70832 28.9902C5.89759 27.2504 5.45939 25.3603 5.42183 23.4412C5.41376 20.4497 6.56215 17.5709 8.62699 15.4062C10.6918 13.2416 13.5134 11.9588 16.5019 11.8258C19.4905 11.6928 22.4148 12.7199 24.6638 14.6926C26.9127 16.6652 28.3123 19.4307 28.57 22.4111C28.6198 22.9631 28.7871 23.4981 29.0605 23.9802L32.3953 29.1785C32.3765 29.197 32.3539 29.2111 32.3291 29.2198C32.3042 29.2286 32.2778 29.2318 32.2515 29.2292Z" fill="#0A66C2"/>
<path d="M17.2445 6.08097C17.4122 6.08207 17.5784 6.04986 17.7336 5.9862C17.8887 5.92253 18.0297 5.82869 18.1483 5.71011C18.2668 5.59153 18.3607 5.45058 18.4243 5.29543C18.488 5.14029 18.5202 4.97405 18.5191 4.80635V1.27543C18.5233 1.10538 18.4933 0.936224 18.4311 0.777911C18.3689 0.619597 18.2757 0.475327 18.1569 0.353593C18.0381 0.231859 17.8961 0.13512 17.7394 0.0690703C17.5826 0.0030204 17.4142 -0.0310059 17.2441 -0.0310059C17.074 -0.0310059 16.9056 0.0030204 16.7489 0.0690703C16.5921 0.13512 16.4502 0.231859 16.3314 0.353593C16.2126 0.475327 16.1193 0.619597 16.0571 0.777911C15.9949 0.936224 15.965 1.10538 15.9691 1.27543V4.75716C15.965 5.10115 16.0966 5.43293 16.3353 5.68068C16.5739 5.92844 16.9006 6.07224 17.2445 6.08097Z" fill="#0A66C2"/>
<path d="M8.76051 6.71685C8.85724 6.9493 9.02065 7.14789 9.23011 7.28758C9.43958 7.42727 9.68572 7.50179 9.93749 7.50176C10.1049 7.49274 10.2701 7.4596 10.428 7.40336C10.739 7.27256 10.9857 7.02412 11.1142 6.7122C11.2428 6.40028 11.2429 6.05016 11.1145 5.73819L9.79065 2.5017C9.72604 2.34714 9.63162 2.20681 9.51278 2.08874C9.39395 1.97067 9.25301 1.87716 9.09804 1.81355C8.94306 1.74994 8.77707 1.71748 8.60955 1.71802C8.44203 1.71857 8.27625 1.7521 8.12169 1.81671C7.96713 1.88131 7.82681 1.97573 7.70873 2.09457C7.59066 2.21341 7.49715 2.35434 7.43354 2.50932C7.30508 2.82231 7.30622 3.17351 7.4367 3.48566L8.76051 6.71685Z" fill="#0A66C2"/>
<path d="M4.64068 11.28C4.87723 11.0368 5.00957 10.7109 5.00957 10.3717C5.00957 10.0324 4.87723 9.70659 4.64068 9.46342L2.18834 7.01107C2.07186 6.88 1.92981 6.77412 1.77093 6.69994C1.61205 6.62575 1.43968 6.58482 1.2644 6.57966C1.08913 6.5745 0.914652 6.60522 0.75168 6.66993C0.588709 6.73464 0.440683 6.83198 0.316692 6.95597C0.192701 7.07996 0.0953614 7.22799 0.0306489 7.39096C-0.0340636 7.55394 -0.0647831 7.72841 -0.0596235 7.90369C-0.0544639 8.07896 -0.0135344 8.25133 0.0606526 8.41021C0.13484 8.5691 0.240719 8.71114 0.371788 8.82762L2.82413 11.28C3.0716 11.5273 3.40601 11.668 3.75587 11.672C4.08985 11.6582 4.40611 11.5181 4.64068 11.28Z" fill="#0A66C2"/>
</g>
</g>
<defs>
<clipPath id="clip0_198_2">
<rect width="35" height="46.59" fill="white"/>
</clipPath>
<clipPath id="clip1_198_2">
<rect width="34.9875" height="46.59" fill="white" transform="translate(0.00622559)"/>
</clipPath>
</defs>
</svg>
