<svg width="35" height="45" viewBox="0 0 35 45" fill="none" xmlns="http://www.w3.org/2000/svg">
<g clip-path="url(#clip0_198_16)">
<g clip-path="url(#clip1_198_16)">
<g clip-path="url(#clip2_198_16)">
<path d="M6.24098 0H28.7591C30.4113 0.00809006 31.9935 0.667998 33.1618 1.83627C34.33 3.00454 34.9899 4.58673 34.998 6.23889V30.0288C34.9899 31.681 34.33 33.2632 33.1618 34.4315C31.9935 35.5997 30.4113 36.2596 28.7591 36.2677H16.236L9.1323 43.6045L9.06537 43.6561C8.63986 43.985 8.11676 44.1626 7.57892 44.1608C6.96849 44.1626 6.37862 43.9403 5.92114 43.5362C5.46367 43.132 5.17039 42.574 5.09691 41.968L5.09153 41.9219L4.88226 36.1123C3.67915 35.836 2.58284 35.2146 1.7278 34.3243C0.61748 33.1703 -0.00125926 31.6302 0.00208871 30.0288V6.23889C0.0101788 4.58673 0.670085 3.00454 1.83835 1.83627C3.00662 0.667998 4.58881 0.00809006 6.24098 0ZM28.7591 33.9596C29.7992 33.9515 30.7943 33.5348 31.5297 32.7994C32.2651 32.064 32.6818 31.0688 32.6899 30.0288V6.23889C32.6818 5.19888 32.2651 4.20374 31.5297 3.46832C30.7943 2.7329 29.7992 2.31618 28.7591 2.30813H6.24098C5.20096 2.31618 4.20583 2.7329 3.47041 3.46832C2.73499 4.20374 2.31827 5.19888 2.31022 6.23889V30.0288C2.31308 31.0424 2.70561 32.0161 3.40653 32.7482C4.10745 33.4803 5.06308 33.9149 6.07556 33.9619L7.11422 34.0311L7.3912 41.7249C7.42351 41.8503 7.57508 41.8534 7.57662 41.8534C7.59122 41.8537 7.60576 41.8516 7.6197 41.8473L15.2558 33.9611L28.7591 33.9596ZM13.3231 9.98807C14.8811 10.003 16.3747 10.6116 17.4993 11.6899C18.6115 10.5922 20.1136 9.98015 21.6762 9.98807C23.2351 10.004 24.7291 10.6144 25.8532 11.6945L25.8801 11.7207C26.4254 12.2662 26.8561 12.9152 27.1468 13.6297C27.4375 14.3441 27.5823 15.1095 27.5728 15.8807C27.5665 17.4549 26.9362 18.9623 25.8201 20.0723L18.8588 27.0336C18.6793 27.2135 18.4659 27.3561 18.2309 27.453C17.996 27.5499 17.7442 27.5993 17.4901 27.5984C17.0005 27.5944 16.5278 27.4194 16.1536 27.1037L16.1113 27.0683L9.23463 20.1285C8.12687 19.0288 7.48611 17.5442 7.44582 15.9838C7.40114 14.4373 7.96975 12.9358 9.02766 11.8069L9.05459 11.7792C9.61225 11.2131 10.2767 10.7634 11.0094 10.4559C11.7421 10.1485 12.5285 9.98944 13.3231 9.98807ZM15.9105 13.3641C15.2143 12.6934 14.2897 12.3118 13.3231 12.2962C12.6003 12.2878 11.8919 12.4991 11.2918 12.9021C10.6916 13.3051 10.228 13.8808 9.96211 14.553C9.69626 15.2252 9.64074 15.9623 9.80292 16.6668C9.96509 17.3712 10.3373 18.0098 10.8703 18.4982L17.467 25.1533L24.186 18.4343C24.8716 17.7529 25.2589 16.8274 25.2631 15.8607C25.2702 15.3985 25.1854 14.9394 25.0137 14.5102C24.842 14.081 24.5868 13.6901 24.2629 13.3603C23.5668 12.69 22.6424 12.3087 21.6762 12.2931C21.1989 12.29 20.7257 12.3815 20.2839 12.5624C19.8422 12.7434 19.4407 13.0101 19.1027 13.3472L17.5001 14.9498L15.9105 13.3641Z" fill="#0A66C2"/>
</g>
</g>
</g>
<defs>
<clipPath id="clip0_198_16">
<rect width="35" height="44.16" fill="white"/>
</clipPath>
<clipPath id="clip1_198_16">
<rect width="35" height="44.16" fill="white"/>
</clipPath>
<clipPath id="clip2_198_16">
<rect width="34.9959" height="44.16" fill="white" transform="translate(0.0020752)"/>
</clipPath>
</defs>
</svg>
