<svg width="35" height="35" viewBox="0 0 35 35" fill="none" xmlns="http://www.w3.org/2000/svg">
<g clip-path="url(#clip0_198_28)">
<g clip-path="url(#clip1_198_28)">
<g clip-path="url(#clip2_198_28)">
<path d="M31.6226 8.10295e-06C32.2796 -0.0071749 32.9351 0.0636219 33.5754 0.210914C33.8732 0.282346 34.145 0.435571 34.3604 0.653302C34.5757 0.871034 34.7259 1.1446 34.794 1.44315V1.45031C35.3492 3.86987 34.7412 7.55551 33.1262 11.5627C32.3465 13.4929 31.3988 15.3509 30.294 17.1153C29.2076 18.872 27.9264 20.5005 26.4749 21.97C25.6545 22.7929 24.7773 23.557 23.8496 24.2568C23.9454 25.8045 23.6913 27.3539 23.1063 28.7899C22.1695 30.8455 20.5381 32.505 18.4989 33.4767C17.0646 34.1965 15.5275 34.6899 13.9423 34.9394C13.833 34.9576 13.7224 34.9667 13.6116 34.9668C13.3319 34.9662 13.0554 34.9069 12.8 34.7928C12.5446 34.6787 12.3159 34.5123 12.1288 34.3043C11.9417 34.0964 11.8003 33.8515 11.7138 33.5855C11.6272 33.3195 11.5974 33.0383 11.6262 32.7601V32.7496L12.1691 27.8077L12.0572 27.7953C11.4346 27.7301 10.8534 27.4524 10.4116 27.009L7.96662 24.5673C7.52318 24.1254 7.24549 23.5443 7.18028 22.9217C7.17594 22.8844 7.1716 22.8444 7.16726 22.8019L2.20772 23.3461C2.13959 23.353 2.07116 23.3565 2.00268 23.3565C1.71202 23.3569 1.42478 23.2939 1.16098 23.1719C0.897171 23.0499 0.663157 22.8718 0.475251 22.6501C0.287345 22.4283 0.15007 22.1683 0.0730002 21.888C-0.00407011 21.6078 -0.019081 21.3141 0.0290143 21.0274C0.283644 19.4439 0.779336 17.9088 1.49885 16.4754C2.47277 14.4377 4.13162 12.807 6.18564 11.868H6.18955C7.44767 11.3484 8.79935 11.0936 10.1603 11.1194C10.3504 11.1194 10.5444 11.1233 10.7409 11.1318C11.4414 10.207 12.2055 9.33219 13.0277 8.5137C15.7114 5.95273 18.8283 3.88827 22.2334 2.41631C25.6723 0.880735 29.0943 8.10295e-06 31.6226 8.10295e-06ZM32.3575 2.63959C32.1135 2.61496 31.8684 2.60301 31.6232 2.60378C27.3647 2.60378 19.4369 5.7856 14.8699 10.35C13.978 11.2348 13.1645 12.1953 12.4386 13.2207L12.0057 13.8378L11.2552 13.7727C10.8789 13.7388 10.5112 13.7213 10.161 13.7213C9.15852 13.6966 8.16165 13.8773 7.23171 14.2524C4.32654 15.5315 3.18544 18.7439 2.75321 20.6668L9.67535 19.9072L9.69358 21.3392C9.69729 21.7705 9.72292 22.2014 9.77039 22.6301V22.6568C9.77539 22.6819 9.78841 22.7047 9.80749 22.7218L12.2518 25.1661C12.2689 25.1852 12.2917 25.1982 12.3169 25.2032H12.3436C12.7697 25.2505 13.1979 25.2762 13.6266 25.2801L15.0587 25.2989L14.3055 32.2237C16.2277 31.7993 19.4428 30.6686 20.7206 27.7491C21.2108 26.4717 21.3781 25.093 21.2075 23.7354L21.1424 22.9881L21.7569 22.5578C22.7847 21.8322 23.7476 21.0187 24.6347 20.1265C27.2589 17.3725 29.3223 14.1342 30.7099 10.5922C31.3668 9.00302 31.8599 7.35107 32.1817 5.66192C32.3772 4.66711 32.4363 3.65034 32.3575 2.63959ZM23.174 7.20986C24.2455 7.20915 25.284 7.58002 26.1127 8.25928C26.9414 8.93853 27.5088 9.88412 27.7184 10.9349C27.928 11.9857 27.7667 13.0766 27.262 14.0218C26.7573 14.967 25.9405 15.7079 24.9507 16.1183C23.961 16.5287 22.8595 16.5832 21.8341 16.2725C20.8087 15.9617 19.9227 15.305 19.3272 14.4143C18.7317 13.5235 18.4636 12.4538 18.5685 11.3874C18.6733 10.3211 19.1447 9.32413 19.9023 8.56643C20.3309 8.13521 20.8407 7.79327 21.4023 7.56042C21.9638 7.32756 22.566 7.20841 23.174 7.20986ZM23.174 13.8619C23.6421 13.8618 24.0958 13.6995 24.4577 13.4025C24.8196 13.1055 25.0673 12.6923 25.1587 12.2331C25.2501 11.774 25.1794 11.2973 24.9588 10.8844C24.7382 10.4715 24.3813 10.1478 23.9488 9.96856C23.5164 9.78928 23.0351 9.76548 22.5871 9.90121C22.139 10.0369 21.7519 10.3238 21.4916 10.7129C21.2314 11.1021 21.1141 11.5694 21.1597 12.0353C21.2053 12.5013 21.4111 12.937 21.7419 13.2682C21.9294 13.457 22.1526 13.6067 22.3984 13.7086C22.6442 13.8105 22.9079 13.8626 23.174 13.8619Z" fill="#0A66C2"/>
<path d="M7.61774 22.1112C8.1304 22.159 8.60608 22.3987 8.94957 22.7823C9.20539 23.0049 9.54258 23.3174 9.92599 23.6864C10.6707 24.4025 11.4935 25.2429 12.0214 25.8235C12.5734 26.4308 12.9731 26.8696 12.9112 27.5283L12.9073 27.5648C12.7786 28.6465 12.2881 29.653 11.5156 30.4211C10.7195 31.2172 9.22492 31.7608 6.94662 32.0817C5.97522 32.2166 4.99751 32.3014 4.01737 32.3355L2.65039 32.37L2.68359 30.9998C2.71781 30.0214 2.80255 29.0454 2.93746 28.0758C3.25837 25.7975 3.80191 24.3074 4.59801 23.5113C5.36831 22.7439 6.37205 22.2545 7.4511 22.1203L7.53247 22.1099L7.61774 22.1112ZM10.2176 27.7093C9.56667 26.9789 8.04411 25.4577 7.3157 24.8106C6.98595 24.9225 6.68622 25.1084 6.43953 25.3542C6.3816 25.4121 5.8615 25.9927 5.51584 28.4416C5.45596 28.8667 5.41104 29.2774 5.37785 29.6426C5.75149 29.6087 6.172 29.5632 6.60553 29.5013C9.03875 29.1557 9.61549 28.6388 9.67342 28.5809C9.9198 28.3359 10.1061 28.0371 10.2176 27.708V27.7093Z" fill="#0A66C2"/>
</g>
</g>
</g>
<defs>
<clipPath id="clip0_198_28">
<rect width="35" height="35" fill="white"/>
</clipPath>
<clipPath id="clip1_198_28">
<rect width="35" height="34.97" fill="white"/>
</clipPath>
<clipPath id="clip2_198_28">
<rect width="34.9941" height="34.97" fill="white" transform="translate(0.00292969)"/>
</clipPath>
</defs>
</svg>
