<svg width="35" height="46" viewBox="0 0 35 46" fill="none" xmlns="http://www.w3.org/2000/svg">
<g clip-path="url(#clip0_198_20)">
<g clip-path="url(#clip1_198_20)">
<g clip-path="url(#clip2_198_20)">
<path d="M33.902 22.3404C33.3628 21.7967 32.6599 21.4452 31.9014 21.3401C31.9752 20.7894 31.9235 20.2292 31.7503 19.7013C31.5771 19.1734 31.2868 18.6914 30.9011 18.2915C30.361 17.7755 29.6824 17.428 28.9481 17.2912C28.9875 17.1195 29.0035 16.9432 28.9957 16.7672C29.006 16.056 28.8027 15.358 28.4121 14.7636C28.0215 14.1691 27.4615 13.7056 26.8045 13.4328L30.6629 9.57448C31.0052 9.23768 31.2774 8.83645 31.4638 8.39393C31.6502 7.95142 31.7472 7.47637 31.7491 6.99619C31.751 6.516 31.6579 6.04019 31.475 5.59619C31.2922 5.15219 31.0232 4.74878 30.6837 4.40924C30.3441 4.0697 29.9407 3.80074 29.4967 3.61787C29.0527 3.435 28.5769 3.34185 28.0967 3.34378C27.6165 3.34571 27.1415 3.44269 26.699 3.62912C26.2564 3.81555 25.8552 4.08774 25.5184 4.43L12.038 17.9104C11.3533 16.5391 10.5228 15.2455 9.561 14.0521C8.75065 13.066 7.80441 12.1999 6.75059 11.4798C5.9553 10.8994 4.99619 10.5867 4.01163 10.5867C3.02708 10.5867 2.06797 10.8994 1.27268 11.4798C0.632629 11.9254 0.19379 12.6051 0.0511496 13.3717C-0.0914907 14.1384 0.0735442 14.9305 0.510531 15.5764L2.51116 18.6726C3.55916 20.3035 4.09044 22.2127 4.03545 24.1505L3.89255 30.0571C3.88913 30.3429 3.82834 30.6251 3.71378 30.8869C3.59923 31.1488 3.43324 31.385 3.22567 31.5814L0.510531 34.2966C0.303887 34.5155 0.18878 34.8052 0.18878 35.1063C0.18878 35.4074 0.303887 35.6971 0.510531 35.9161C0.725901 36.1297 1.01696 36.2496 1.32031 36.2496C1.62366 36.2496 1.91472 36.1297 2.13009 35.9161L4.84523 33.201C5.66458 32.3742 6.14102 31.2682 6.17899 30.1048L6.32189 24.1981C6.36826 21.8048 5.7053 19.4513 4.41652 17.4341L2.41589 14.3379C2.36071 14.2604 2.32178 14.1725 2.30145 14.0796C2.28113 13.9866 2.27983 13.8905 2.29763 13.7971C2.31543 13.7036 2.35197 13.6147 2.40504 13.5357C2.45811 13.4568 2.52662 13.3894 2.60643 13.3376C3.01284 13.036 3.50552 12.8731 4.01163 12.8731C4.51775 12.8731 5.01043 13.036 5.41684 13.3376C6.29048 13.9404 7.07603 14.6618 7.75091 15.4811C8.88835 16.9676 9.84758 18.5823 10.609 20.2921C10.6805 20.4602 10.7914 20.6085 10.9323 20.7246C11.0733 20.8406 11.2401 20.9211 11.4187 20.959C11.6073 21.0001 11.8034 20.9909 11.9873 20.9324C12.1712 20.8739 12.3365 20.7681 12.4667 20.6256L27.0903 6.00193C27.2154 5.87682 27.364 5.77758 27.5274 5.70987C27.6909 5.64216 27.8661 5.60731 28.043 5.60731C28.22 5.60731 28.3952 5.64216 28.5586 5.70987C28.7221 5.77758 28.8706 5.87682 28.9957 6.00193C29.1208 6.12703 29.2201 6.27556 29.2878 6.43902C29.3555 6.60248 29.3903 6.77768 29.3903 6.95461C29.3903 7.13154 29.3555 7.30673 29.2878 7.4702C29.2201 7.63366 29.1208 7.78218 28.9957 7.90729L17.897 19.1489C17.4695 19.57 17.154 20.0912 16.9793 20.6652C16.8046 21.2393 16.7762 21.8479 16.8967 22.4357C17.2366 23.7779 17.1485 25.1929 16.6446 26.4826C16.1406 27.7723 15.2461 28.8722 14.0862 29.6284C13.8313 29.7895 13.6458 30.0401 13.5665 30.3311C13.4871 30.622 13.5196 30.9322 13.6575 31.2003C13.7523 31.3812 13.8969 31.5311 14.0741 31.6324C14.2514 31.7337 14.4539 31.7821 14.6578 31.772C14.857 31.7698 15.0528 31.7209 15.2295 31.6291C16.3504 30.9211 17.2997 29.9725 18.0083 28.8519C18.7169 27.7314 19.167 26.4671 19.326 25.1508C19.7078 25.2872 20.1115 25.3518 20.5168 25.3414C20.7074 25.3414 20.8979 25.2937 21.0408 25.2937C21.1879 26.0245 21.5341 26.7003 22.0411 27.2467C22.3778 27.5848 22.779 27.8517 23.2209 28.0317C23.6628 28.2118 24.1363 28.3012 24.6134 28.2947C24.7563 28.2947 24.8992 28.247 25.0897 28.247C25.1948 29.0055 25.5463 29.7085 26.09 30.2477C26.4729 30.6197 26.9264 30.9112 27.4238 31.1051C25.6404 33.53 23.6651 35.8079 21.5172 37.9167C20.778 38.6465 19.8665 39.1776 18.8671 39.4607C17.8678 39.7439 16.8131 39.7699 15.8011 39.5363L14.5626 39.2505C14.3777 39.2123 14.1865 39.2183 14.0044 39.268C13.8223 39.3176 13.6545 39.4096 13.5146 39.5363L9.70391 43.347C9.49726 43.566 9.38215 43.8557 9.38215 44.1568C9.38215 44.4579 9.49726 44.7476 9.70391 44.9666C9.91928 45.1802 10.2103 45.3001 10.5137 45.3001C10.817 45.3001 11.1081 45.1802 11.3235 44.9666L14.6578 41.6322L15.2771 41.7751C16.6584 42.0964 18.0985 42.064 19.464 41.681C20.8295 41.298 22.0763 40.5767 23.0891 39.5839C25.797 36.9838 28.2093 34.0924 30.2818 30.9622C30.6206 30.7953 30.9271 30.5695 31.1869 30.2953L33.9496 27.5325C34.6215 26.8449 34.9976 25.9217 34.9976 24.9603C35 24.4724 34.9042 23.9891 34.716 23.539C34.5278 23.089 34.251 22.6813 33.902 22.3404ZM21.4219 22.6738C21.2968 22.799 21.1483 22.8982 20.9848 22.9659C20.8213 23.0336 20.6461 23.0685 20.4692 23.0685C20.2923 23.0685 20.1171 23.0336 19.9536 22.9659C19.7902 22.8982 19.6416 22.799 19.5165 22.6738C19.3914 22.5487 19.2922 22.4002 19.2245 22.2368C19.1568 22.0733 19.1219 21.8981 19.1219 21.7212C19.1219 21.5442 19.1568 21.369 19.2245 21.2056C19.2922 21.0421 19.3914 20.8936 19.5165 20.7685L24.4228 15.8622C24.676 15.6105 25.0185 15.4692 25.3755 15.4692C25.7325 15.4692 26.075 15.6105 26.3282 15.8622C26.5698 16.1209 26.7058 16.4608 26.7093 16.8149C26.712 16.991 26.6797 17.1659 26.6143 17.3294C26.5489 17.493 26.4516 17.6419 26.3282 17.7675L21.4219 22.6738ZM25.5184 25.6272C25.2658 25.8798 24.9231 26.0218 24.5657 26.0218C24.2084 26.0218 23.8657 25.8798 23.6131 25.6272C23.3604 25.3745 23.2184 25.0318 23.2184 24.6745C23.2184 24.3172 23.3604 23.9745 23.6131 23.7218L27.3761 19.9587C27.5004 19.8334 27.6491 19.735 27.813 19.6694C27.9768 19.6039 28.1524 19.5726 28.3288 19.5776C28.6829 19.5811 29.0227 19.7171 29.2815 19.9587C29.5332 20.2119 29.6744 20.5544 29.6744 20.9114C29.6744 21.2684 29.5332 21.6109 29.2815 21.8641L25.5184 25.6272ZM32.2825 25.913L29.5197 28.6757C29.267 28.9284 28.9243 29.0704 28.567 29.0704C28.2097 29.0704 27.867 28.9284 27.6143 28.6757C27.3616 28.4231 27.2197 28.0804 27.2197 27.7231C27.2197 27.3657 27.3616 27.023 27.6143 26.7704L30.3771 24.0076C30.6303 23.7559 30.9728 23.6147 31.3298 23.6147C31.6868 23.6147 32.0293 23.7559 32.2825 24.0076C32.5241 24.2664 32.6601 24.6063 32.6635 24.9603C32.6797 25.1379 32.6535 25.3168 32.5873 25.4824C32.5211 25.6479 32.4166 25.7955 32.2825 25.913Z" fill="#0A66C2"/>
<path d="M11.3235 5.43028C11.6255 5.42622 11.9139 5.30446 12.1274 5.09094C12.3409 4.87742 12.4627 4.589 12.4667 4.28707V1.14322C12.4667 0.840018 12.3463 0.549236 12.1319 0.334841C11.9175 0.120446 11.6267 0 11.3235 0C11.0203 0 10.7295 0.120446 10.5151 0.334841C10.3007 0.549236 10.1803 0.840018 10.1803 1.14322V4.28707C10.1844 4.589 10.3061 4.87742 10.5196 5.09094C10.7332 5.30446 11.0216 5.42622 11.3235 5.43028Z" fill="#0A66C2"/>
<path d="M5.5597 7.1452C5.77507 7.35882 6.06613 7.47869 6.36948 7.47869C6.67282 7.47869 6.96388 7.35882 7.17925 7.1452C7.3859 6.92621 7.50101 6.63651 7.50101 6.33542C7.50101 6.03433 7.3859 5.74462 7.17925 5.52564L4.94045 3.28684C4.72569 3.07207 4.4344 2.95142 4.13067 2.95142C3.82695 2.95142 3.53566 3.07207 3.3209 3.28684C3.10613 3.5016 2.98547 3.79289 2.98547 4.09662C2.98547 4.40034 3.10613 4.69163 3.3209 4.9064L5.5597 7.1452Z" fill="#0A66C2"/>
<path d="M16.2774 7.47864C16.4279 7.48055 16.5772 7.452 16.7164 7.3947C16.8555 7.33739 16.9817 7.25252 17.0872 7.1452L19.326 4.9064C19.4323 4.80005 19.5167 4.67381 19.5742 4.53487C19.6318 4.39592 19.6614 4.24701 19.6614 4.09662C19.6614 3.94623 19.6318 3.79731 19.5742 3.65837C19.5167 3.51943 19.4323 3.39318 19.326 3.28684C19.2196 3.1805 19.0934 3.09614 18.9545 3.03859C18.8155 2.98104 18.6666 2.95142 18.5162 2.95142C18.3658 2.95142 18.2169 2.98104 18.078 3.03859C17.939 3.09614 17.8128 3.1805 17.7064 3.28684L15.4676 5.52564C15.261 5.74462 15.1459 6.03433 15.1459 6.33542C15.1459 6.63651 15.261 6.92621 15.4676 7.1452C15.5731 7.25252 15.6993 7.33739 15.8384 7.3947C15.9776 7.452 16.1269 7.48055 16.2774 7.47864Z" fill="#0A66C2"/>
</g>
</g>
</g>
<defs>
<clipPath id="clip0_198_20">
<rect width="35" height="45.3" fill="white"/>
</clipPath>
<clipPath id="clip1_198_20">
<rect width="35" height="45.3" fill="white"/>
</clipPath>
<clipPath id="clip2_198_20">
<rect width="34.9953" height="45.3" fill="white" transform="translate(0.00231934)"/>
</clipPath>
</defs>
</svg>
