<svg width="20" height="20" viewBox="0 0 20 20" fill="none" xmlns="http://www.w3.org/2000/svg">
<path fill-rule="evenodd" clip-rule="evenodd" d="M0.15625 2.96875C0.15625 1.41545 1.41545 0.15625 2.96875 0.15625H4.25465C5.06125 0.15625 5.76435 0.70521 5.95998 1.48773L6.99666 5.63447C7.16819 6.32059 6.91182 7.0427 6.34602 7.46705L5.13325 8.37662C5.00732 8.47108 4.97994 8.60939 5.01531 8.70595C6.07985 11.612 8.38798 13.9201 11.294 14.9847C11.3906 15.0201 11.5289 14.9927 11.6234 14.8667L12.533 13.654C12.9573 13.0882 13.6794 12.8318 14.3655 13.0033L18.5123 14.04C19.2948 14.2357 19.8438 14.9387 19.8438 15.7454V17.0312C19.8438 18.5846 18.5846 19.8438 17.0312 19.8438H14.9219C6.76705 19.8438 0.15625 13.233 0.15625 5.07812V2.96875Z" fill="#0A66C2"/>
</svg>
