<svg width="35" height="36" viewBox="0 0 35 36" fill="none" xmlns="http://www.w3.org/2000/svg">
<g clip-path="url(#clip0_198_10)">
<g clip-path="url(#clip1_198_10)">
<g clip-path="url(#clip2_198_10)">
<path d="M31.1078 2.36959e-05H3.77886C3.28262 -0.0017376 2.79093 0.0947047 2.33213 0.283795C1.87332 0.472885 1.45647 0.750886 1.10557 1.10178C0.754671 1.45268 0.47667 1.86954 0.287579 2.32834C0.098489 2.78715 0.00204658 3.27884 0.00380788 3.77508V24.7628C0.00204658 25.259 0.098489 25.7507 0.287579 26.2095C0.47667 26.6683 0.754671 27.0852 1.10557 27.4361C1.45647 27.787 1.87332 28.065 2.33213 28.254C2.79093 28.4431 3.28262 28.5396 3.77886 28.5378H6.45905L5.47747 30.6536C5.32671 30.969 5.268 31.3205 5.30808 31.6678C5.34816 32.0151 5.4854 32.344 5.70404 32.6167C5.91901 32.892 6.20447 33.104 6.53014 33.2303C6.85581 33.3565 7.20956 33.3923 7.55391 33.3338L9.74298 32.9186L10.8378 34.8818C11.0035 35.1773 11.2443 35.4238 11.536 35.5962C11.8276 35.7686 12.1597 35.8608 12.4985 35.8634H12.5738C12.9237 35.848 13.2629 35.7381 13.5553 35.5453C13.8478 35.3525 14.0824 35.0841 14.2344 34.7685L16.9146 29.0689C17.1005 29.1125 17.2902 29.1377 17.481 29.1442C17.6718 29.1377 17.8615 29.1125 18.0474 29.0689L20.7283 34.7658C20.8802 35.0814 21.1149 35.3499 21.4073 35.5427C21.6998 35.7355 22.039 35.8454 22.3889 35.8607H22.4609C22.8015 35.8638 23.1366 35.774 23.4301 35.6011C23.7236 35.4282 23.9644 35.1786 24.1268 34.8791L25.219 32.9193L27.4461 33.3344C27.7905 33.3964 28.1454 33.3622 28.4717 33.2357C28.798 33.1092 29.0832 32.8953 29.2959 32.6174C29.515 32.3448 29.6527 32.0158 29.6931 31.6684C29.7336 31.321 29.6751 30.9692 29.5245 30.6536L28.5429 28.5398H31.2231C32.2235 28.537 33.182 28.1384 33.8894 27.431C34.5967 26.7237 34.9954 25.7651 34.9982 24.7648V3.77508C34.9636 2.76496 34.539 1.80751 33.8137 1.10365C33.0883 0.3998 32.1185 0.00425489 31.1078 2.36959e-05ZM24.6906 19.9308C24.3527 20.3196 24.1543 20.8099 24.1268 21.3242L23.9003 24.1177C23.9025 24.1331 23.9011 24.1488 23.8962 24.1636C23.8913 24.1783 23.883 24.1918 23.872 24.2028C23.861 24.2138 23.8476 24.222 23.8328 24.2269C23.8181 24.2318 23.8024 24.2332 23.787 24.231L20.9935 24.4576C20.4784 24.4916 19.9878 24.6901 19.5941 25.024L17.4803 26.8359C17.4594 26.8542 17.4325 26.8644 17.4047 26.8644C17.3769 26.8644 17.35 26.8542 17.3291 26.8359L15.2153 25.024C14.8253 24.6839 14.3326 24.4845 13.8159 24.4576L11.0224 24.231C11.007 24.2332 10.9913 24.2318 10.9766 24.2269C10.9618 24.222 10.9484 24.2138 10.9374 24.2028C10.9264 24.1918 10.9181 24.1783 10.9132 24.1636C10.9083 24.1488 10.9069 24.1331 10.9091 24.1177L10.7619 21.3242C10.7279 20.8091 10.5293 20.3186 10.1955 19.9248L8.38356 17.8111C8.36519 17.7902 8.35506 17.7633 8.35506 17.7354C8.35506 17.7076 8.36519 17.6807 8.38356 17.6598L10.1955 15.546C10.5355 15.1561 10.7349 14.6633 10.7619 14.1466L10.9884 11.3532C10.9862 11.3378 10.9876 11.3221 10.9925 11.3073C10.9974 11.2925 11.0057 11.2791 11.0167 11.2681C11.0277 11.2571 11.0411 11.2488 11.0559 11.2439C11.0706 11.239 11.0863 11.2376 11.1017 11.2399L13.8952 11.0133C14.4103 10.9793 14.9009 10.7808 15.2946 10.4469L17.4084 8.635C17.4463 8.59701 17.4463 8.59701 17.4837 8.59701C17.521 8.59701 17.5216 8.59701 17.559 8.635L19.6727 10.4469C20.0627 10.7869 20.5554 10.9864 21.0721 11.0133L23.8656 11.2399C23.881 11.2376 23.8967 11.239 23.9115 11.2439C23.9262 11.2488 23.9396 11.2571 23.9506 11.2681C23.9616 11.2791 23.9699 11.2925 23.9748 11.3073C23.9797 11.3221 23.9811 11.3378 23.9789 11.3532L24.2055 14.1466C24.2394 14.6618 24.438 15.1523 24.7719 15.546L26.5838 17.6598C26.6021 17.6807 26.6123 17.7076 26.6123 17.7354C26.6123 17.7633 26.6021 17.7902 26.5838 17.8111L24.6906 19.9308ZM12.4605 33.1045L11.5942 31.5572C11.4285 31.2616 11.1875 31.015 10.8958 30.8426C10.604 30.6702 10.2718 30.5781 9.9329 30.5756C9.81829 30.5695 9.70347 30.5824 9.59304 30.6136L7.85645 30.9535L10.0455 26.3108C10.3164 26.4429 10.6109 26.52 10.9118 26.5373L13.7426 26.7639L14.9507 27.7828L12.4605 33.1045ZM25.295 30.5723C24.8988 30.4972 24.489 30.5482 24.1234 30.7182C23.7577 30.8882 23.4545 31.1686 23.2565 31.5199L22.3902 33.0672L19.8986 27.7448L21.1821 26.6879L23.9756 26.4614C24.2734 26.426 24.5649 26.3498 24.8419 26.2348L27.0309 30.8775L25.295 30.5723ZM32.5799 24.7628C32.5793 25.153 32.4241 25.5271 32.1481 25.8031C31.8722 26.079 31.4981 26.2343 31.1078 26.2348H27.3708L26.2379 23.8192L26.4265 21.5168C26.4265 21.4788 26.4265 21.4788 26.4645 21.4415L28.2771 19.3251C28.6598 18.8932 28.8711 18.3362 28.8711 17.7591C28.8711 17.182 28.6598 16.625 28.2771 16.1931L26.4272 14.004L26.2006 11.2106C26.1613 10.6328 25.9141 10.0889 25.5046 9.67947C25.0952 9.27003 24.5513 9.02278 23.9736 8.98352L21.1428 8.75695L19.029 6.94505C18.5971 6.5623 18.0401 6.35096 17.463 6.35096C16.8859 6.35096 16.3289 6.5623 15.897 6.94505L13.67 8.75695L10.8765 8.98352C10.2988 9.02278 9.75485 9.27003 9.3454 9.67947C8.93595 10.0889 8.68871 10.6328 8.64944 11.2106L8.42287 14.0414L6.61098 16.1551C6.22823 16.587 6.01689 17.1441 6.01689 17.7211C6.01689 18.2982 6.22823 18.8553 6.61098 19.2871L8.46086 21.4762L8.64944 23.7785L7.5166 26.1942H3.74088C3.35086 26.1934 2.97702 26.0382 2.70124 25.7624C2.42546 25.4866 2.27021 25.1128 2.26951 24.7228V3.77508C2.26986 3.38483 2.42495 3.01065 2.70077 2.73458C2.97659 2.45851 3.35063 2.30308 3.74088 2.30237H31.1078C31.4981 2.3029 31.8722 2.45816 32.1481 2.73411C32.4241 3.01005 32.5793 3.38416 32.5799 3.77441V24.7628Z" fill="#0A66C2"/>
<path d="M21.8598 15.8165L19.708 15.4014C19.5981 15.3801 19.4939 15.3354 19.4027 15.2703C19.3116 15.2052 19.2355 15.1213 19.1796 15.0242L18.0847 13.061C18.021 12.9411 17.9258 12.8409 17.8094 12.7709C17.693 12.701 17.5598 12.6641 17.424 12.6641C17.2882 12.6641 17.155 12.701 17.0386 12.7709C16.9222 12.8409 16.8271 12.9411 16.7633 13.061L15.6691 15.0235C15.6133 15.1206 15.5372 15.2046 15.446 15.2697C15.3548 15.3347 15.2507 15.3794 15.1407 15.4007L12.9516 15.8158C12.8226 15.8446 12.7032 15.9062 12.6051 15.9947C12.5069 16.0833 12.4334 16.1957 12.3916 16.3211C12.3498 16.4465 12.3412 16.5806 12.3665 16.7103C12.3919 16.84 12.4505 16.9609 12.5364 17.0613L14.0465 18.6846C14.1233 18.7632 14.1805 18.8589 14.2133 18.9638C14.246 19.0688 14.2535 19.18 14.2351 19.2884L14.0465 21.5154C14.0306 21.6473 14.0506 21.781 14.1042 21.9025C14.1578 22.024 14.2431 22.1289 14.3512 22.2061C14.4593 22.2833 14.5861 22.33 14.7185 22.3413C14.8508 22.3526 14.9837 22.3281 15.1034 22.2704L17.1025 21.3268C17.3097 21.2509 17.537 21.2509 17.7442 21.3268L19.7434 22.2704C19.863 22.3281 19.9959 22.3526 20.1283 22.3413C20.2606 22.33 20.3875 22.2833 20.4955 22.2061C20.6036 22.1289 20.6889 22.024 20.7425 21.9025C20.7961 21.781 20.8161 21.6473 20.8002 21.5154L20.5337 19.2884C20.5152 19.18 20.5227 19.0688 20.5555 18.9638C20.5883 18.8589 20.6454 18.7632 20.7223 18.6846L22.2323 17.0613C22.3331 16.9701 22.406 16.8522 22.4426 16.7212C22.4791 16.5902 22.4779 16.4516 22.4389 16.3214C22.3999 16.1911 22.3248 16.0745 22.2223 15.9852C22.1198 15.8959 21.9941 15.8374 21.8598 15.8165Z" fill="#0A66C2"/>
</g>
</g>
</g>
<defs>
<clipPath id="clip0_198_10">
<rect width="35" height="35.86" fill="white"/>
</clipPath>
<clipPath id="clip1_198_10">
<rect width="35" height="35.86" fill="white"/>
</clipPath>
<clipPath id="clip2_198_10">
<rect width="34.9924" height="35.86" fill="white" transform="translate(0.00378418)"/>
</clipPath>
</defs>
</svg>
